<svg xmlns="http://www.w3.org/2000/svg" viewBox="0 0 271.47 76.86"><defs><style>.cls-1{fill:#fff;}</style></defs><title>Recurso 8</title><g id="Capa_2" data-name="Capa 2"><g id="Capa_3" data-name="Capa 3"><path class="cls-1" d="M57.42,74a2.32,2.32,0,0,0,.32,1.13,2,2,0,0,0,1.86.81,3.1,3.1,0,0,0,1.08-.18,1.24,1.24,0,0,0,1-1.23,1.07,1.07,0,0,0-.39-.94A3.81,3.81,0,0,0,60,73.1l-1.07-.25a4.74,4.74,0,0,1-1.48-.55,1.7,1.7,0,0,1-.75-1.52A2.32,2.32,0,0,1,57.4,69a2.86,2.86,0,0,1,2.09-.71,3.56,3.56,0,0,1,2.11.62,2.26,2.26,0,0,1,.87,2h-1a2.09,2.09,0,0,0-.34-1,1.9,1.9,0,0,0-1.65-.64,1.81,1.81,0,0,0-1.33.4,1.31,1.31,0,0,0-.42,1,.93.93,0,0,0,.48.87,7.27,7.27,0,0,0,1.44.45l1.11.25a3.55,3.55,0,0,1,1.23.51,2,2,0,0,1,.75,1.66,2.07,2.07,0,0,1-1,1.93,4.24,4.24,0,0,1-2.23.59,3.26,3.26,0,0,1-2.32-.78A2.64,2.64,0,0,1,56.39,74Z"/><path class="cls-1" d="M66.64,68.49h1.24l3,8.13H69.62l-.84-2.44h-3.2l-.88,2.44H63.57Zm1.83,4.8-1.26-3.6-1.3,3.6Z"/><polygon class="cls-1" points="71.83 68.49 73.12 68.49 77.18 75.06 77.18 68.49 78.23 68.49 78.23 76.62 76.99 76.62 72.88 70.06 72.88 76.62 71.83 76.62 71.83 68.49"/><polygon class="cls-1" points="85.92 68.49 85.92 69.46 83.19 69.46 83.19 76.62 82.08 76.62 82.08 69.46 79.33 69.46 79.33 68.49 85.92 68.49"/><rect class="cls-1" x="87.19" y="68.49" width="1.11" height="8.13"/><path class="cls-1" d="M92.46,68.49H93.7l3,8.13H95.45l-.85-2.44H91.41l-.88,2.44H89.4Zm1.82,4.8L93,69.69l-1.31,3.6Z"/><path class="cls-1" d="M103.06,68.72A2.9,2.9,0,0,1,104.52,71h-1.09a2,2,0,0,0-.8-1.3,2.77,2.77,0,0,0-1.55-.41,2.35,2.35,0,0,0-1.86.86,3.63,3.63,0,0,0-.75,2.52A4.08,4.08,0,0,0,99.09,75a2.29,2.29,0,0,0,2,.91,2.57,2.57,0,0,0,1.79-.64,2.71,2.71,0,0,0,.72-2.07h-2.54v-.91h3.56v4.35H104l-.27-1.05a3.92,3.92,0,0,1-1,.86,3.65,3.65,0,0,1-1.81.4,3.52,3.52,0,0,1-2.45-.93,4.47,4.47,0,0,1-1.12-3.23,4.68,4.68,0,0,1,1.09-3.24,3.44,3.44,0,0,1,2.69-1.15,4,4,0,0,1,2,.44"/><path class="cls-1" d="M113.17,69.65a4.54,4.54,0,0,1,.8,2.76,4.81,4.81,0,0,1-.92,3,3.66,3.66,0,0,1-3.1,1.42,3.74,3.74,0,0,1-3-1.24,5.28,5.28,0,0,1-.13-5.85,3.54,3.54,0,0,1,3.1-1.51,3.76,3.76,0,0,1,3.2,1.39m-1,5.18a4.44,4.44,0,0,0,.64-2.4,3.41,3.41,0,0,0-.74-2.31,2.59,2.59,0,0,0-2.06-.88,2.72,2.72,0,0,0-2.06.87,3.67,3.67,0,0,0-.79,2.56,3.71,3.71,0,0,0,.68,2.28,2.58,2.58,0,0,0,2.22.93,2.3,2.3,0,0,0,2.11-1"/><path class="cls-1" d="M118.49,68.49h3.24a3,3,0,0,1,2.57,1.19,4.38,4.38,0,0,1,.82,2.74,5.58,5.58,0,0,1-.48,2.35,3,3,0,0,1-2.92,1.85h-3.23Zm3,7.19a2.88,2.88,0,0,0,.9-.12,2,2,0,0,0,1-.83,3.65,3.65,0,0,0,.46-1.26,5.38,5.38,0,0,0,.08-.85,4.06,4.06,0,0,0-.59-2.35,2.15,2.15,0,0,0-1.89-.84H119.6v6.25Z"/><polygon class="cls-1" points="126.73 68.49 132.63 68.49 132.63 69.48 127.8 69.48 127.8 71.95 132.26 71.95 132.26 72.89 127.8 72.89 127.8 75.65 132.71 75.65 132.71 76.62 126.73 76.62 126.73 68.49"/><path class="cls-1" d="M143.09,69.08a2.87,2.87,0,0,1,.93,1.85h-1.08a2.17,2.17,0,0,0-.71-1.25,2.22,2.22,0,0,0-1.5-.46,2.38,2.38,0,0,0-1.9.85,3.85,3.85,0,0,0-.73,2.59,3.81,3.81,0,0,0,.65,2.31,2.27,2.27,0,0,0,2,.9,2.06,2.06,0,0,0,1.82-.94,3.66,3.66,0,0,0,.49-1.29h1.08a3.75,3.75,0,0,1-.94,2.15,3.33,3.33,0,0,1-2.59,1,3.4,3.4,0,0,1-2.35-.85A4.54,4.54,0,0,1,137,72.47a4.46,4.46,0,0,1,.94-3,3.42,3.42,0,0,1,2.81-1.26,3.31,3.31,0,0,1,2.37.82"/><path class="cls-1" d="M152.22,69.65a4.54,4.54,0,0,1,.81,2.76,4.82,4.82,0,0,1-.93,3A3.64,3.64,0,0,1,149,76.86a3.71,3.71,0,0,1-2.95-1.24,4.7,4.7,0,0,1-1-3,4.76,4.76,0,0,1,.82-2.82A3.56,3.56,0,0,1,149,68.26a3.73,3.73,0,0,1,3.19,1.39m-1,5.18a4.44,4.44,0,0,0,.64-2.4,3.41,3.41,0,0,0-.74-2.31,2.58,2.58,0,0,0-2.05-.88,2.7,2.7,0,0,0-2.06.87,3.62,3.62,0,0,0-.8,2.56,3.78,3.78,0,0,0,.68,2.28,2.58,2.58,0,0,0,2.22.93,2.3,2.3,0,0,0,2.11-1"/><path class="cls-1" d="M154.32,68.49h1.57l2.34,6.87,2.32-6.87h1.57v8.13h-1.06v-4.8c0-.17,0-.44,0-.83s0-.79,0-1.23l-2.33,6.86h-1.08l-2.35-6.86V70c0,.2,0,.5,0,.91s0,.71,0,.9v4.8h-1Z"/><path class="cls-1" d="M163.89,68.49h3.64a2.45,2.45,0,0,1,1.74.61,2.23,2.23,0,0,1,.66,1.72,2.51,2.51,0,0,1-.59,1.65,2.21,2.21,0,0,1-1.81.71H165v3.44h-1.1Zm4.27,1.12a2.24,2.24,0,0,0-1-.18H165v2.82h2.18a2.09,2.09,0,0,0,1.19-.31,1.26,1.26,0,0,0,.46-1.11,1.24,1.24,0,0,0-.66-1.22"/><path class="cls-1" d="M178,69.65a4.48,4.48,0,0,1,.81,2.76,4.82,4.82,0,0,1-.93,3,3.64,3.64,0,0,1-3.09,1.42,3.71,3.71,0,0,1-3-1.24,4.7,4.7,0,0,1-1-3,4.84,4.84,0,0,1,.82-2.82,3.57,3.57,0,0,1,3.11-1.51A3.73,3.73,0,0,1,178,69.65m-1,5.18a4.45,4.45,0,0,0,.65-2.4,3.46,3.46,0,0,0-.74-2.31,2.6,2.6,0,0,0-2.06-.88,2.7,2.7,0,0,0-2.06.87,3.67,3.67,0,0,0-.8,2.56,3.72,3.72,0,0,0,.69,2.28,2.55,2.55,0,0,0,2.21.93,2.29,2.29,0,0,0,2.11-1"/><path class="cls-1" d="M180.88,74a2.32,2.32,0,0,0,.32,1.13,2,2,0,0,0,1.86.81,3.06,3.06,0,0,0,1.08-.18,1.25,1.25,0,0,0,1-1.23,1.05,1.05,0,0,0-.4-.94,3.72,3.72,0,0,0-1.28-.48l-1.07-.25a4.77,4.77,0,0,1-1.47-.55,1.7,1.7,0,0,1-.75-1.52,2.32,2.32,0,0,1,.74-1.79,2.82,2.82,0,0,1,2.08-.71,3.59,3.59,0,0,1,2.12.62,2.28,2.28,0,0,1,.87,2h-1a1.68,1.68,0,0,0-2-1.64,1.87,1.87,0,0,0-1.34.4,1.33,1.33,0,0,0-.41,1,.92.92,0,0,0,.49.87,6.66,6.66,0,0,0,1.43.45l1.1.25a3.53,3.53,0,0,1,1.24.51,2,2,0,0,1,.74,1.66,2.07,2.07,0,0,1-.95,1.93,4.19,4.19,0,0,1-2.23.59,3.25,3.25,0,0,1-2.31-.78,2.64,2.64,0,0,1-.82-2.09Z"/><polygon class="cls-1" points="193.64 68.49 193.64 69.46 190.9 69.46 190.9 76.62 189.78 76.62 189.78 69.46 187.04 69.46 187.04 68.49 193.64 68.49"/><polygon class="cls-1" points="194.75 68.49 200.65 68.49 200.65 69.48 195.83 69.48 195.83 71.95 200.29 71.95 200.29 72.89 195.83 72.89 195.83 75.65 200.74 75.65 200.74 76.62 194.75 76.62 194.75 68.49"/><polygon class="cls-1" points="202.21 68.49 203.31 68.49 203.31 75.65 207.39 75.65 207.39 76.62 202.21 76.62 202.21 68.49"/><path class="cls-1" d="M210.89,68.49h1.24l3,8.13h-1.21L213,74.18h-3.19L209,76.62h-1.13Zm1.83,4.8-1.26-3.6-1.3,3.6Z"/><path class="cls-1" d="M13.74,43.8c.1,0,.16.07.19.22a2.51,2.51,0,0,1,0,.51,4.36,4.36,0,0,1,0,.62c0,.21,0,.4,0,.56,0,.37,0,.74,0,1.11s0,.74-.07,1.1a.55.55,0,0,1-.1.26.19.19,0,0,1-.15.07l-.16,0a.36.36,0,0,0-.14,0c-.09,0-.16-.06-.22-.17a1.54,1.54,0,0,1-.17-.43q-.08-.26-.15-.54a5,5,0,0,0-.14-.53,2.31,2.31,0,0,0-.6-.81,4.14,4.14,0,0,0-.94-.62,6.05,6.05,0,0,0-1.13-.4,5.33,5.33,0,0,0-1.18-.13,5.11,5.11,0,0,0-2.62.6A4.74,4.74,0,0,0,4.47,46.8a6.69,6.69,0,0,0-.87,2.29,12.85,12.85,0,0,0-.26,2.64,13.15,13.15,0,0,0,.27,2.7,7.21,7.21,0,0,0,.9,2.29,4.83,4.83,0,0,0,1.6,1.58,4.45,4.45,0,0,0,2.35.58,7.44,7.44,0,0,0,2.19-.24,2.29,2.29,0,0,0,1.15-.71,2.06,2.06,0,0,0,.42-1.13,14,14,0,0,0,.07-1.54c0-.79,0-1.4,0-1.84a2.48,2.48,0,0,0-.21-1,.75.75,0,0,0-.51-.41,4.55,4.55,0,0,0-.94-.08,2.71,2.71,0,0,1-.51,0c-.15,0-.22-.16-.22-.4a.25.25,0,0,1,.12-.23.63.63,0,0,1,.27-.1l.32-.05h.27c.43,0,.79,0,1.08,0A10.75,10.75,0,0,0,13,51.2c.48,0,.88,0,1.23-.05a11,11,0,0,1,1.23-.06,4.57,4.57,0,0,1,.5,0,.3.3,0,0,1,.27.34.24.24,0,0,1-.18.27,2,2,0,0,1-.46.06l-.58.06a1,1,0,0,0-.54.24.47.47,0,0,0-.15.21,2.85,2.85,0,0,0-.09.41c0,.17,0,.34-.05.53a4.63,4.63,0,0,0,0,.51v.43c0,.18,0,.43,0,.74s0,.64,0,1,0,.65,0,1,0,.56,0,.74,0,.23,0,.37a.49.49,0,0,1-.12.32,2.46,2.46,0,0,1-1.14.76,8.93,8.93,0,0,1-1.62.4,14.66,14.66,0,0,1-1.69.17c-.55,0-1,0-1.32,0a9.67,9.67,0,0,1-3.06-.47,6.25,6.25,0,0,1-2.39-1.39A6.62,6.62,0,0,1,1.3,55.45,9.53,9.53,0,0,1,.76,52.1a9.69,9.69,0,0,1,.58-3.48A7.25,7.25,0,0,1,3,46a7.17,7.17,0,0,1,2.56-1.64,9.53,9.53,0,0,1,3.33-.56,7.87,7.87,0,0,1,1.93.25,5.8,5.8,0,0,1,1.77.75.18.18,0,0,0,.27,0,2.25,2.25,0,0,0,.27-.36,2.16,2.16,0,0,1,.27-.4.43.43,0,0,1,.34-.2"/><path class="cls-1" d="M24.58,53.07a1.69,1.69,0,0,1,.72.66A9.47,9.47,0,0,1,26,55c.23.46.47,1,.73,1.49a11.41,11.41,0,0,0,.87,1.49,7.36,7.36,0,0,0,1.08,1.25,3.06,3.06,0,0,0,1.38.69,1.51,1.51,0,0,0,.41.13c.15,0,.22.11.22.23s-.05.16-.17.28a2.56,2.56,0,0,1-.67.07l-.37,0-.31,0a5,5,0,0,1-2.65-1.28,6.55,6.55,0,0,1-1.63-2.46c-.21-.39-.4-.8-.58-1.22a6.47,6.47,0,0,0-.62-1.14,3.42,3.42,0,0,0-.8-.85,1.86,1.86,0,0,0-1.12-.33c-.25,0-.4,0-.46.14a1.57,1.57,0,0,0-.08.6v3.83a1.67,1.67,0,0,0,.12.72.8.8,0,0,0,.33.35,1.59,1.59,0,0,0,.52.16l.66.1a.3.3,0,0,0,.15,0,1.18,1.18,0,0,1,.28,0,.17.17,0,0,1,.13.19c0,.17-.06.28-.18.31a2,2,0,0,1-.56.06c-.45,0-.89,0-1.34-.07s-.88-.06-1.32-.06-.76,0-1.14,0a10.88,10.88,0,0,1-1.14.06.72.72,0,0,1-.32-.05c-.05,0-.08-.13-.08-.3a.18.18,0,0,1,.15-.18,2.78,2.78,0,0,1,.38-.08l.5-.08a1.7,1.7,0,0,0,.49-.18,1.09,1.09,0,0,0,.38-.36,1.05,1.05,0,0,0,.16-.61V54.07c0-1,0-2.1,0-3.14s0-2.08,0-3.14a.91.91,0,0,0-.16-.58.74.74,0,0,0-.37-.28,1.65,1.65,0,0,0-.5-.1l-.49,0a1.27,1.27,0,0,1-.38-.08.21.21,0,0,1-.15-.22c0-.17.06-.27.2-.31a1.75,1.75,0,0,1,.4,0h.41a3,3,0,0,0,.42,0h1.63c.46,0,.93,0,1.41,0l1.42,0a5.79,5.79,0,0,1,1.32.16,3.68,3.68,0,0,1,1.32.57,3.38,3.38,0,0,1,1,1.13,3.48,3.48,0,0,1,.41,1.8,2.37,2.37,0,0,1-.25,1.1,3,3,0,0,1-.65.92,4.5,4.5,0,0,1-.89.73,7.39,7.39,0,0,1-1,.54m.88-3.35a3.14,3.14,0,0,0-.25-1.3,2.69,2.69,0,0,0-.65-.93,2.77,2.77,0,0,0-1-.58,3.92,3.92,0,0,0-1.26-.2,1.17,1.17,0,0,0-.86.24,1,1,0,0,0-.21.68v.62c0,.5,0,1.06,0,1.68s0,1.18,0,1.67v.48a.78.78,0,0,0,0,.32.28.28,0,0,0,.21.18,1.21,1.21,0,0,0,.49.06,7.66,7.66,0,0,0,1.39-.12,3,3,0,0,0,1.12-.44,2.22,2.22,0,0,0,.75-.9,3.37,3.37,0,0,0,.27-1.46"/><path class="cls-1" d="M30.21,59.39a.33.33,0,0,1,.15-.32,1.48,1.48,0,0,1,.37-.11,2.57,2.57,0,0,0,.44-.11.75.75,0,0,0,.4-.34,2,2,0,0,0,.17-.32l.23-.53c.08-.19.15-.37.23-.54a4,4,0,0,1,.15-.41c.27-.67.52-1.33.79-2s.54-1.31.81-2c.46-1.13.92-2.25,1.37-3.37L36.7,46a.51.51,0,0,1,.08-.18.24.24,0,0,1,.19-.07.25.25,0,0,1,.21.11.77.77,0,0,1,.11.19q.43,1.06.87,2.16L39,50.39c.52,1.35,1.06,2.69,1.63,4s1.18,2.65,1.8,4a.89.89,0,0,0,.48.46,4.5,4.5,0,0,0,.6.17,3.7,3.7,0,0,1,.52.12.28.28,0,0,1,.23.31c0,.1-.07.18-.2.23a1.31,1.31,0,0,1-.38.06h-.2a8.69,8.69,0,0,1-.89,0,6.92,6.92,0,0,0-.9-.06c-.44,0-.86,0-1.29.06s-.85,0-1.29,0a.48.48,0,0,1-.3-.11.34.34,0,0,1-.12-.28c0-.13.08-.22.25-.24l.59-.05a3.29,3.29,0,0,0,.59-.1.37.37,0,0,0,.26-.39.5.5,0,0,0,0-.12l0-.12c0-.13-.1-.31-.19-.57l-.36-.9c-.13-.35-.29-.73-.46-1.15s-.36-.85-.54-1.3c-.06-.12-.12-.24-.16-.34a1.15,1.15,0,0,0-.1-.18.72.72,0,0,0-.45-.18,5.93,5.93,0,0,0-.61,0H35.79l-.73,0a3,3,0,0,0-.61.08c-.22.52-.43,1-.62,1.56s-.36,1-.49,1.39-.25.78-.33,1.06a3.21,3.21,0,0,0-.12.52.47.47,0,0,0,.3.5,2.2,2.2,0,0,0,.66.15,4.17,4.17,0,0,1,.66.1.33.33,0,0,1,.29.35.31.31,0,0,1-.11.25.37.37,0,0,1-.26.1c-.39,0-.8,0-1.2-.06A10,10,0,0,0,32,59.59a6,6,0,0,0-.78,0,5.82,5.82,0,0,1-.76,0,.23.23,0,0,1-.2-.09.31.31,0,0,1-.07-.2m6.45-11c-.18.4-.32.74-.44,1s-.25.6-.37.9-.28.66-.43,1.05l-.62,1.46h3.27s0,0,.07,0a.24.24,0,0,0,.1,0c-.16-.43-.33-.89-.5-1.39s-.34-.94-.48-1.37S37,49.26,36.88,49a3.8,3.8,0,0,0-.22-.52"/><path class="cls-1" d="M47.94,59.67c-.4,0-.82,0-1.23,0s-.81,0-1.24,0a1.55,1.55,0,0,1-.34-.05.26.26,0,0,1-.2-.26.26.26,0,0,1,.14-.25,1,1,0,0,1,.35-.1,2.77,2.77,0,0,1,.42,0l.38,0a1.12,1.12,0,0,0,.49-.23.91.91,0,0,0,.25-.41,1.72,1.72,0,0,0,.11-.51c0-.19,0-.37,0-.55,0-1.48.05-3,.08-4.39s0-2.9,0-4.39a5.17,5.17,0,0,0,0-.57A1,1,0,0,0,47,47.5a1.07,1.07,0,0,0-.37-.36,2,2,0,0,0-.67-.22,2,2,0,0,0-.32,0,1.83,1.83,0,0,1-.4,0,1.18,1.18,0,0,1-.36-.1.24.24,0,0,1-.14-.23.28.28,0,0,1,.19-.26.72.72,0,0,1,.32-.1l.8,0,.8,0,.61,0,.6,0a1.16,1.16,0,0,1,.51.09,1.29,1.29,0,0,1,.34.25c.1.11.22.25.34.41a3.86,3.86,0,0,0,.54.58l1.51,1.79,1.71,2c.63.72,1.33,1.54,2.1,2.45s1.68,2,2.7,3.2c.18,0,.26-.14.25-.4V54.26c0-1,0-1.93,0-2.9s0-1.93,0-2.9c0-.17,0-.33,0-.5a3.93,3.93,0,0,0-.06-.48.65.65,0,0,0-.44-.52,2.93,2.93,0,0,0-.73-.11l-.69,0a.31.31,0,0,1-.3-.34.26.26,0,0,1,.13-.25.64.64,0,0,1,.27-.07c.4,0,.8,0,1.19,0s.8,0,1.2,0l1,0,1,0c.27,0,.4.11.4.32a.28.28,0,0,1-.23.29,3.5,3.5,0,0,1-.52.09l-.61.08a.63.63,0,0,0-.42.21,1.28,1.28,0,0,0-.18.52,6.27,6.27,0,0,0-.11.79q0,.42,0,.81c0,.26,0,.45,0,.57v6.29c0,.9,0,2,0,3.19a5.41,5.41,0,0,1,0,.59.32.32,0,0,1-.27.31.21.21,0,0,1-.18-.06.9.9,0,0,1-.19-.16L58,59.82l-.14-.17c-.35-.43-.71-.84-1.07-1.27s-.7-.84-1.05-1.28L55.7,57l-.23-.27-.58-.67c-.26-.31-.62-.73-1.1-1.27L52,52.76c-.72-.84-1.58-1.86-2.63-3.07-.21-.25-.42-.52-.64-.81a4.87,4.87,0,0,0-.73-.77,3.36,3.36,0,0,0-.06.63c0,.66,0,1.3,0,1.88s0,1.2,0,1.83,0,1.32,0,2.06,0,1.59,0,2.55a4.68,4.68,0,0,0,.12,1.25.84.84,0,0,0,.34.53,1.25,1.25,0,0,0,.59.16,5.69,5.69,0,0,1,.88.12,1.11,1.11,0,0,1,.29.14.35.35,0,0,1,.14.3.14.14,0,0,1-.11.14.51.51,0,0,1-.2,0c-.37,0-.72,0-1.08,0s-.72,0-1.08,0"/><path class="cls-1" d="M85,44.68c0,.09-.15.14-.33.16l-.6.06a4.48,4.48,0,0,0-.64.08.7.7,0,0,0-.45.26,1,1,0,0,0-.23.51,3.73,3.73,0,0,0-.05.69v.36c0,1.79,0,3.56,0,5.33s0,3.53,0,5.32a1.58,1.58,0,0,0,.17.83,1.26,1.26,0,0,0,.43.43,1.52,1.52,0,0,0,.56.17l.55.09a1.74,1.74,0,0,1,.42.13.32.32,0,0,1,.18.32c0,.21-.07.33-.23.34l-.48,0c-.46,0-.94,0-1.42-.06s-.94-.06-1.42-.06-.91,0-1.37.06-.93.06-1.38.06c-.3,0-.45-.11-.45-.34s.08-.34.22-.38A2.11,2.11,0,0,1,79,59a5.29,5.29,0,0,0,.67-.05.87.87,0,0,0,.59-.36,1.42,1.42,0,0,0,.3-.74,6.19,6.19,0,0,0,.06-.81V53.14a.65.65,0,0,0-.13-.46.64.64,0,0,0-.32-.18,1.39,1.39,0,0,0-.41,0H73.59a2.33,2.33,0,0,0-.54,0,1,1,0,0,0-.41.19.62.62,0,0,0-.16.46v4.19c0,.28,0,.45,0,.5a.68.68,0,0,1,0,.14.83.83,0,0,0,.42.75,2.08,2.08,0,0,0,.77.23l.74.08q.33,0,.33.33c0,.21-.08.33-.23.35a3.73,3.73,0,0,1-.5,0,11.11,11.11,0,0,1-1.14,0,10.68,10.68,0,0,0-1.13-.05h-.83a10.55,10.55,0,0,0-1.13.06,10.32,10.32,0,0,1-1.11.06l-.41,0a.22.22,0,0,1-.23-.26.38.38,0,0,1,.33-.39l.74-.14a2.25,2.25,0,0,0,.78-.26,1,1,0,0,0,.46-.78c0-.32.07-.64.07-1s0-.65,0-1V46.62a2.27,2.27,0,0,0-.16-1,1.2,1.2,0,0,0-.41-.51,1.61,1.61,0,0,0-.54-.2l-.53-.08a1.44,1.44,0,0,1-.42-.1.35.35,0,0,1-.16-.33.24.24,0,0,1,.2-.25,1.52,1.52,0,0,1,.42-.06h.24c.36,0,.73,0,1.09,0s.71,0,1.08,0l1.55,0c.52,0,1,0,1.55,0a.62.62,0,0,1,.26.06.23.23,0,0,1,.12.22q0,.42-.33.48a6,6,0,0,1-.78.05,1.75,1.75,0,0,0-.4,0,1.11,1.11,0,0,0-.35.16.79.79,0,0,0-.26.35,1.53,1.53,0,0,0-.09.58c0,.2,0,.4,0,.6v4.23c0,.4.18.6.55.6H80a2.34,2.34,0,0,0,.44-.06.32.32,0,0,0,.23-.18,2.87,2.87,0,0,0,0-.4v-.8c0-.32,0-.67,0-1s0-.71,0-1V46.67c0-.1,0-.22,0-.35a1.92,1.92,0,0,0,0-.41,1.8,1.8,0,0,0-.08-.39,1,1,0,0,0-.19-.28A1,1,0,0,0,80,45.1a2.57,2.57,0,0,0-.4-.08L79.23,45a.57.57,0,0,1-.23-.09,1.25,1.25,0,0,1-.36-.05c-.09,0-.14-.13-.14-.3a.3.3,0,0,1,.09-.24.53.53,0,0,1,.24-.11,1.06,1.06,0,0,1,.31,0h.32c.38,0,.74,0,1.1,0a9.47,9.47,0,0,0,1.07.05l1.32,0c.44,0,.88-.05,1.32-.05a1.54,1.54,0,0,1,.63.08c.1.06.14.2.14.41"/><path class="cls-1" d="M101.12,52.81a7.11,7.11,0,0,1-.57,2.82A7.55,7.55,0,0,1,99,58a7.7,7.7,0,0,1-2.34,1.57,6.91,6.91,0,0,1-2.86.59A7,7,0,0,1,91,59.58a6.29,6.29,0,0,1-2.19-1.48,7,7,0,0,1-1.42-2.23A7.66,7.66,0,0,1,86.9,53a7.91,7.91,0,0,1,.52-2.87,7.06,7.06,0,0,1,1.46-2.29,7,7,0,0,1,2.22-1.51,7.17,7.17,0,0,1,2.8-.55,7.67,7.67,0,0,1,2.79.51A7.1,7.1,0,0,1,99,47.76a6.83,6.83,0,0,1,2.14,5.05M98.81,52a9.17,9.17,0,0,0-.72-2.26,6.39,6.39,0,0,0-1.27-1.85A4.66,4.66,0,0,0,95,46.73a4.54,4.54,0,0,0-2.34-.13,4.3,4.3,0,0,0-2.19,1,4.41,4.41,0,0,0-1.16,1.74,6.65,6.65,0,0,0-.37,2.15,11.33,11.33,0,0,0,.19,2.2,10.66,10.66,0,0,0,.64,2.19A7.2,7.2,0,0,0,91,57.83a4.94,4.94,0,0,0,1.8,1.26,4.32,4.32,0,0,0,2.48.16,4,4,0,0,0,2.17-1,4.67,4.67,0,0,0,1.17-1.83A6.81,6.81,0,0,0,99,54.2,10.74,10.74,0,0,0,98.81,52"/><path class="cls-1" d="M115.07,46.15a4.59,4.59,0,0,0-.18,1c0,.39-.06.76-.11,1.14a4.65,4.65,0,0,1-.19,1c-.08.28-.21.41-.39.41s-.23,0-.26-.17a1.63,1.63,0,0,1,0-.45,5.11,5.11,0,0,0,0-.58,1.19,1.19,0,0,0-.09-.6.7.7,0,0,0-.36-.36,1.93,1.93,0,0,0-.64-.2,6.08,6.08,0,0,0-.79-.1l-.79,0h-1.11a.27.27,0,0,0-.2.07.7.7,0,0,0-.13.3,3.58,3.58,0,0,0,0,.65l0,2.26c0,1.1,0,2.18,0,3.28s0,2.17,0,3.27v.59a4.12,4.12,0,0,0,.07.59.92.92,0,0,0,.46.7,2.38,2.38,0,0,0,.79.22c.27,0,.51.06.73.08s.33.11.33.26-.05.31-.14.32l-.37,0c-.5,0-1,0-1.48-.05s-1,0-1.47,0-.89,0-1.33,0-.88.05-1.33.05l-.31,0c-.1,0-.16-.09-.16-.22a.28.28,0,0,1,.17-.29,1,1,0,0,1,.36-.07.76.76,0,0,0,.24,0,2.93,2.93,0,0,0,.86-.18,1,1,0,0,0,.49-.36,1.31,1.31,0,0,0,.23-.58,6.88,6.88,0,0,0,.06-.88v-9c0-.07,0-.18,0-.35a2.33,2.33,0,0,0,0-.34c0-.11-.17-.19-.43-.24a5.63,5.63,0,0,0-.84-.06h-1.15a2.92,2.92,0,0,0-.83.12,2.09,2.09,0,0,0-.77.48,1.69,1.69,0,0,0-.24.39l-.32.62c-.11.21-.21.41-.32.59s-.18.25-.23.25a.43.43,0,0,1-.28-.07.35.35,0,0,1-.09-.28,3.37,3.37,0,0,1,.15-.85,11.31,11.31,0,0,0,.24-1.49l0-.43a1.63,1.63,0,0,1,.09-.42.62.62,0,0,1,.2-.31.49.49,0,0,1,.36-.12.19.19,0,0,1,.16.09l.16.21a.93.93,0,0,0,.25.23.85.85,0,0,0,.44.14l2.29.08,2.28,0,1.72,0,1.72,0h.56a3.45,3.45,0,0,0,.57-.05.67.67,0,0,0,.37-.17,1.66,1.66,0,0,0,.26-.27c.07-.1.14-.18.19-.27s.1-.12.16-.12c.22,0,.35.08.4.24a.61.61,0,0,1,0,.44"/><path class="cls-1" d="M125.78,49a.33.33,0,0,1-.3-.23,5.34,5.34,0,0,1-.23-.56c-.07-.2-.15-.41-.24-.62a1,1,0,0,0-.41-.45,2,2,0,0,0-.48-.16,6.07,6.07,0,0,0-.71-.1c-.25,0-.52,0-.8-.05H121a.93.93,0,0,0-1,.64,2.75,2.75,0,0,0-.12.61c0,.23,0,.45,0,.67,0,.42,0,.84,0,1.26v1.69a2,2,0,0,0,0,.39.48.48,0,0,0,.22.13,1.63,1.63,0,0,0,.33,0h1.65a8.76,8.76,0,0,0,1-.08,1.13,1.13,0,0,0,.8-.47,2,2,0,0,0,.27-.91l.12-.21a.25.25,0,0,1,.22-.1c.14,0,.21.06.22.18s0,.25,0,.39,0,.52,0,.78,0,.52,0,.78,0,.52,0,.77,0,.51,0,.78a2.11,2.11,0,0,0,0,.23,2.17,2.17,0,0,1,0,.26.44.44,0,0,1-.08.22.23.23,0,0,1-.2.08.22.22,0,0,1-.2-.16,2,2,0,0,1-.12-.39,3.15,3.15,0,0,1-.09-.42,1.06,1.06,0,0,0-.09-.31.77.77,0,0,0-.38-.53,2.16,2.16,0,0,0-.73-.24,4.08,4.08,0,0,0-.87,0h-1l-.31,0a3.11,3.11,0,0,0-.33,0l-.23,0c-.08,0-.13.06-.15.16a3.23,3.23,0,0,0-.06.33c0,.13,0,.25,0,.38s0,.21,0,.26v2.94c0,.13,0,.28,0,.45a4.26,4.26,0,0,0,.06.5,1.73,1.73,0,0,0,.15.47.62.62,0,0,0,.3.32,1.52,1.52,0,0,0,.52.12c.25,0,.52.05.79.06l.81,0,.56,0h.57l.54,0,.57,0,.5-.08a1.37,1.37,0,0,0,.38-.15,1.63,1.63,0,0,0,.48-.52,6.59,6.59,0,0,0,.42-.71c.13-.23.26-.44.37-.62s.23-.27.33-.27.23,0,.25.15a.52.52,0,0,1,0,.3s0,.07,0,.18a1.32,1.32,0,0,1-.06.2l-.09.39c0,.22-.1.44-.16.68s-.13.57-.21,1a.51.51,0,0,1-.47.22h-8.77l-.53,0-.54,0-.41,0q-.21,0-.21-.3c0-.09.08-.17.23-.22l.56-.14a4.75,4.75,0,0,0,.64-.2,1.07,1.07,0,0,0,.49-.36,1.74,1.74,0,0,0,.2-.73c0-.33,0-.7,0-1.1s0-.81,0-1.23,0-.78,0-1.09c0-1,0-2,0-3s0-2,0-3v-.49a1.22,1.22,0,0,0,0-.17.68.68,0,0,0-.35-.64,2,2,0,0,0-.66-.21c-.24,0-.46,0-.65-.09s-.29-.13-.29-.28a.24.24,0,0,1,.16-.24,1.82,1.82,0,0,1,.37-.09,3.39,3.39,0,0,1,.45,0h.42l1.26,0c.43,0,.85,0,1.29,0,.85,0,1.69,0,2.51,0s1.66,0,2.51,0h.21l.41,0c.14,0,.22.09.24.19A3.57,3.57,0,0,1,126,47c0,.11,0,.25,0,.4s0,.34,0,.56a5.08,5.08,0,0,1,0,.7c0,.22-.1.33-.19.35"/><path class="cls-1" d="M131.67,46.27c.45,0,.89,0,1.3,0s.89,0,1.41,0a.43.43,0,0,1,.17.3.28.28,0,0,1-.22.29,3,3,0,0,1-.51.09l-.59.06a1,1,0,0,0-.49.17.77.77,0,0,0-.19.3,1.7,1.7,0,0,0-.09.39,2.85,2.85,0,0,0,0,.41c0,.14,0,.25,0,.35,0,1.13,0,2.23,0,3.32s0,2.19,0,3.31v.71c0,.23,0,.47,0,.74s0,.52.05.76a3.82,3.82,0,0,0,.11.65.82.82,0,0,0,.2.4,2.25,2.25,0,0,0,1.07.43,4.65,4.65,0,0,0,1.18,0,5.67,5.67,0,0,0,1-.25,3.58,3.58,0,0,0,.64-.28,2.37,2.37,0,0,0,.62-.59,10.33,10.33,0,0,0,.6-.87c.18-.31.35-.58.48-.81a3.22,3.22,0,0,1,.26-.43.46.46,0,0,1,.37-.08.37.37,0,0,1,.28.21,8,8,0,0,0-.72,1.48c-.17.49-.31.93-.41,1.32s-.18.7-.25.95-.15.36-.24.36a18.39,18.39,0,0,1-2.52-.17,20.13,20.13,0,0,0-2.52-.17c-.41,0-.77,0-1.07,0l-.88.08-.87.07c-.31,0-.66,0-1.07,0a.2.2,0,0,1-.18-.09.31.31,0,0,1-.08-.21.32.32,0,0,1,.18-.33,4.13,4.13,0,0,1,.47-.08l.59-.06a1,1,0,0,0,.58-.29,1.41,1.41,0,0,0,.3-.82,10.41,10.41,0,0,0,.07-1.3c0-.48,0-1,0-1.46s0-.9,0-1.25V48.44a4.17,4.17,0,0,0-.08-.83.64.64,0,0,0-.39-.54,2.1,2.1,0,0,0-.69-.2c-.24,0-.46,0-.66-.09a.29.29,0,0,1-.28-.31.26.26,0,0,1,.21-.3l.42,0c.43,0,.86,0,1.27.06a10.75,10.75,0,0,0,1.28.07"/><path class="cls-1" d="M150,44.27c.53,0,1,0,1.51,0s1-.05,1.61-.05a.52.52,0,0,1,.19.34.32.32,0,0,1-.24.33,3.07,3.07,0,0,1-.6.11l-.68.07a.9.9,0,0,0-.55.2.79.79,0,0,0-.23.34,2.11,2.11,0,0,0-.1.45c0,.15,0,.31,0,.47v.4c0,1.3,0,2.57,0,3.81s0,2.52,0,3.82v.81c0,.26,0,.54,0,.84a8.11,8.11,0,0,0,.06.88,3.89,3.89,0,0,0,.13.75.86.86,0,0,0,.23.46,2.52,2.52,0,0,0,1.23.49,5.07,5.07,0,0,0,1.35,0,6.61,6.61,0,0,0,1.2-.28,4.14,4.14,0,0,0,.72-.32,2.48,2.48,0,0,0,.72-.68,9.34,9.34,0,0,0,.7-1c.21-.35.39-.65.55-.94a4,4,0,0,1,.3-.47.44.44,0,0,1,.42-.1.42.42,0,0,1,.33.24,8.64,8.64,0,0,0-.84,1.7c-.19.56-.35,1.07-.47,1.51s-.21.81-.29,1.1-.16.41-.26.41a22.28,22.28,0,0,1-2.9-.19,22.6,22.6,0,0,0-2.91-.2c-.47,0-.88,0-1.23,0l-1,.09-1,.08c-.36,0-.76,0-1.24,0a.26.26,0,0,1-.21-.1.38.38,0,0,1-.09-.24.35.35,0,0,1,.22-.37,2.27,2.27,0,0,1,.53-.1c.22,0,.44,0,.68-.07a1.11,1.11,0,0,0,.66-.34,1.57,1.57,0,0,0,.35-.94,13.54,13.54,0,0,0,.08-1.49c0-.55,0-1.11,0-1.68s0-1,0-1.44V46.78a4.78,4.78,0,0,0-.09-1,.78.78,0,0,0-.46-.63,3.32,3.32,0,0,0-.78-.21l-.75-.11a.33.33,0,0,1-.33-.35c0-.2.08-.31.24-.34a2.7,2.7,0,0,1,.48-.05,13.83,13.83,0,0,1,1.46.08,14.19,14.19,0,0,0,1.47.07"/><path class="cls-1" d="M174.28,52.81a7.11,7.11,0,0,1-.57,2.82A7.38,7.38,0,0,1,172.16,58a7.7,7.7,0,0,1-2.34,1.57,6.91,6.91,0,0,1-2.86.59,7.06,7.06,0,0,1-2.78-.53A6.15,6.15,0,0,1,162,58.1a6.7,6.7,0,0,1-1.42-2.23,8,8,0,0,1,0-5.7,6.7,6.7,0,0,1,3.68-3.8,7.1,7.1,0,0,1,2.8-.55,7.58,7.58,0,0,1,2.78.51,7.2,7.2,0,0,1,2.29,1.43,6.83,6.83,0,0,1,2.14,5.05M172,52a9.17,9.17,0,0,0-.72-2.26A6,6,0,0,0,170,47.86a4.69,4.69,0,0,0-1.81-1.13,4.58,4.58,0,0,0-2.35-.13,4.34,4.34,0,0,0-2.19,1,4.41,4.41,0,0,0-1.16,1.74,6.65,6.65,0,0,0-.37,2.15,11.33,11.33,0,0,0,.2,2.2,10.07,10.07,0,0,0,.64,2.19,6.7,6.7,0,0,0,1.19,1.94,4.81,4.81,0,0,0,1.81,1.26,4.26,4.26,0,0,0,2.46.16,4,4,0,0,0,2.18-1,4.67,4.67,0,0,0,1.17-1.83,6.81,6.81,0,0,0,.39-2.22A10.74,10.74,0,0,0,172,52"/><path class="cls-1" d="M176.51,60.26c-.09,0-.14-.08-.17-.23a4.29,4.29,0,0,1,0-.55,4.82,4.82,0,0,1,0-.65c0-.22,0-.4,0-.54,0-.32,0-.61,0-.87s0-.55,0-.88a.3.3,0,0,1,.08-.22.25.25,0,0,1,.14-.06.35.35,0,0,1,.14,0h.12a.24.24,0,0,1,.2.16,1.48,1.48,0,0,1,.13.39c0,.16.08.32.12.5a3.16,3.16,0,0,0,.16.44,2.45,2.45,0,0,0,1,1.12,2.9,2.9,0,0,0,1.47.4,2.86,2.86,0,0,0,1-.18,2.15,2.15,0,0,0,.83-.51,2.61,2.61,0,0,0,.55-.79,2.74,2.74,0,0,0,.19-1.06,2.29,2.29,0,0,0-.47-1.47A5,5,0,0,0,181,54.24a14.07,14.07,0,0,0-1.54-.87,11.76,11.76,0,0,1-1.53-.93,4.9,4.9,0,0,1-1.18-1.18,2.9,2.9,0,0,1-.47-1.69,3.49,3.49,0,0,1,.33-1.58,3.2,3.2,0,0,1,.88-1.17,3.8,3.8,0,0,1,1.31-.73,4.89,4.89,0,0,1,1.58-.25,2.08,2.08,0,0,1,.88.21,5.21,5.21,0,0,1,.82.41c.13.07.23.08.3,0a1.29,1.29,0,0,0,.2-.3,1.51,1.51,0,0,1,.23-.35.51.51,0,0,1,.42-.17c.08,0,.14.07.16.19a2,2,0,0,1,0,.45c0,.17,0,.35,0,.54a4.4,4.4,0,0,0,0,.48c0,.64,0,1.29-.06,1.93a.46.46,0,0,1-.09.23.21.21,0,0,1-.13.05.39.39,0,0,1-.15,0l-.13,0c-.08,0-.13,0-.18-.16a1.57,1.57,0,0,1-.13-.4c0-.16-.08-.32-.12-.49a1.54,1.54,0,0,0-.16-.44,2.44,2.44,0,0,0-.88-1.09,2,2,0,0,0-1.17-.39,3.1,3.1,0,0,0-.92.14,2.68,2.68,0,0,0-.76.43,1.94,1.94,0,0,0-.51.69,2.1,2.1,0,0,0-.18.92,2,2,0,0,0,.5,1.36,5.46,5.46,0,0,0,1.26,1c.5.3,1,.58,1.57.85a11.37,11.37,0,0,1,1.45.8,3.45,3.45,0,0,1,1.22,1.35,4,4,0,0,1,.46,1.79,4.76,4.76,0,0,1-.32,1.79A3.66,3.66,0,0,1,183,59a3.88,3.88,0,0,1-1.39.79,5.86,5.86,0,0,1-1.77.28,2.86,2.86,0,0,1-.67-.08l-.57-.2-.51-.19a1,1,0,0,0-.43-.1.42.42,0,0,0-.33.12c-.06.09-.13.17-.19.28a1.51,1.51,0,0,1-.22.28.61.61,0,0,1-.41.12"/><path class="cls-1" d="M191.37,59.36a.37.37,0,0,1,.18-.37,1.42,1.42,0,0,1,.41-.12c.16,0,.34-.08.51-.13a.89.89,0,0,0,.46-.39,2.09,2.09,0,0,0,.2-.37c.08-.19.17-.4.27-.61s.18-.42.25-.63l.18-.47c.3-.76.6-1.52.91-2.26s.61-1.51.93-2.28c.53-1.29,1.06-2.58,1.58-3.87s1.05-2.57,1.58-3.86a.82.82,0,0,1,.1-.21.33.33,0,0,1,.46.05,2.53,2.53,0,0,1,.13.22l1,2.48c.34.84.67,1.67,1,2.48.59,1.56,1.22,3.09,1.87,4.61s1.35,3,2.07,4.55a1,1,0,0,0,.55.54,4.43,4.43,0,0,0,.69.19,5.39,5.39,0,0,1,.6.14.33.33,0,0,1,.26.35.29.29,0,0,1-.23.27,1.35,1.35,0,0,1-.44.07h-.23a8.89,8.89,0,0,1-1-.06,7,7,0,0,0-1-.07,14.52,14.52,0,0,0-1.48.07c-.49,0-1,.06-1.49.06a.54.54,0,0,1-.35-.13.43.43,0,0,1-.14-.32c0-.16.1-.24.3-.28s.42,0,.67-.06a3.26,3.26,0,0,0,.67-.1.42.42,0,0,0,.3-.46.32.32,0,0,0,0-.13s0-.1,0-.14-.12-.36-.24-.66-.25-.63-.4-1-.33-.84-.54-1.32-.4-1-.61-1.5a3.44,3.44,0,0,1-.19-.39L201,53a.92.92,0,0,0-.52-.2c-.23,0-.46,0-.7,0h-.41l-.67,0h-.86c-.3,0-.57,0-.85,0a4.11,4.11,0,0,0-.7.08c-.24.6-.49,1.19-.71,1.79s-.41,1.12-.57,1.61-.28.89-.37,1.22a4,4,0,0,0-.14.59.55.55,0,0,0,.34.58,3,3,0,0,0,.76.17,7.15,7.15,0,0,1,.76.12.38.38,0,0,1,.34.4.34.34,0,0,1-.13.28.42.42,0,0,1-.29.12,13.39,13.39,0,0,1-1.4-.07,12.77,12.77,0,0,0-1.38-.08,7.8,7.8,0,0,0-.89,0,5.89,5.89,0,0,1-.88.06.24.24,0,0,1-.23-.11.4.4,0,0,1-.08-.23m7.42-12.58c-.2.45-.37.85-.52,1.18s-.28.68-.42,1-.31.75-.49,1.19-.42,1-.71,1.69h3.76s0,0,.08,0l.11,0c-.18-.51-.38-1-.57-1.6s-.38-1.09-.56-1.58L199,47.37a4,4,0,0,0-.25-.59"/><path class="cls-1" d="M219.69,55.67a4,4,0,0,1-.38,1.79,3.47,3.47,0,0,1-1,1.25,4.37,4.37,0,0,1-1.5.73,7,7,0,0,1-1.82.26l-.17,0h-5.65a4.3,4.3,0,0,1-.46,0,.3.3,0,0,1-.26-.33c0-.13.1-.2.29-.23l.64-.1a3.47,3.47,0,0,0,.67-.19.58.58,0,0,0,.37-.45,4,4,0,0,0,0-.59c0-.37,0-.85,0-1.44s0-1.25,0-2,0-1.49,0-2.26,0-1.52,0-2.25V47.92a2.07,2.07,0,0,0-.07-.56.64.64,0,0,0-.23-.33.83.83,0,0,0-.38-.16l-.55-.08a.66.66,0,0,1-.17,0l-.24-.06a1.21,1.21,0,0,1-.2-.09c-.06,0-.09-.08-.09-.13a.27.27,0,0,1,.22-.26,2,2,0,0,1,.55-.09h1.24c.55,0,1.11,0,1.66-.07S213.38,46,214,46a9,9,0,0,1,1.59.16,5.41,5.41,0,0,1,1.52.56,3.3,3.3,0,0,1,1.15,1,2.64,2.64,0,0,1,.44,1.54A2.39,2.39,0,0,1,218,51a3.76,3.76,0,0,1-1.59,1,1.13,1.13,0,0,0,.36.16c.19,0,.34.11.43.14a4.15,4.15,0,0,1,1.8,1.28,3.15,3.15,0,0,1,.69,2.08m-1.95.18a3,3,0,0,0-.41-1.55,2.67,2.67,0,0,0-.81-.91,3.62,3.62,0,0,0-1-.49,5.53,5.53,0,0,0-1.16-.21l-1.2,0h-.31a.7.7,0,0,0-.38.1c-.13.06-.18.18-.18.37v3.78a5.63,5.63,0,0,0,.07.9,1.15,1.15,0,0,0,.41.77,1.32,1.32,0,0,0,.79.32,6.77,6.77,0,0,0,.85.06,3.35,3.35,0,0,0,2.53-.86,3.14,3.14,0,0,0,.83-2.25m-.87-6.61a2.34,2.34,0,0,0-.77-1.89,2.92,2.92,0,0,0-2-.66h-.27l-.44,0a2,2,0,0,0-.48.07,1,1,0,0,0-.39.2.57.57,0,0,0-.21.37c0,.13,0,.27,0,.41s0,.29,0,.42v3.55c0,.07.06.13.16.21a.78.78,0,0,0,.46.11h.63a5.2,5.2,0,0,0,1.27-.15,2.94,2.94,0,0,0,1.06-.48,2.41,2.41,0,0,0,.73-.88,2.87,2.87,0,0,0,.27-1.3"/><path class="cls-1" d="M230.27,49a.33.33,0,0,1-.3-.23,5.34,5.34,0,0,1-.23-.56c-.07-.2-.16-.41-.25-.62a.93.93,0,0,0-.4-.45,2,2,0,0,0-.48-.16,6.19,6.19,0,0,0-.7-.1c-.26,0-.54,0-.81-.05h-1.61a1,1,0,0,0-.65.18,1,1,0,0,0-.33.46,2.75,2.75,0,0,0-.12.61c0,.23,0,.45,0,.67,0,.42,0,.84,0,1.26s0,.84,0,1.26v.43a2,2,0,0,0,0,.39.43.43,0,0,0,.22.13,1.63,1.63,0,0,0,.33,0h1.64a8.76,8.76,0,0,0,1-.08,1.09,1.09,0,0,0,.79-.47,1.85,1.85,0,0,0,.28-.91l.12-.21a.25.25,0,0,1,.22-.1c.13,0,.21.06.22.18s0,.25,0,.39,0,.52,0,.78,0,.52,0,.78,0,.52,0,.77,0,.51,0,.78a2.11,2.11,0,0,0,0,.23,1.11,1.11,0,0,1,0,.26.37.37,0,0,1-.09.22A.2.2,0,0,1,229,55c-.09,0-.15,0-.2-.16a3,3,0,0,1-.13-.39c0-.14-.05-.28-.08-.42a1.06,1.06,0,0,0-.09-.31.77.77,0,0,0-.38-.53,2.24,2.24,0,0,0-.73-.24,4.16,4.16,0,0,0-.87,0h-1l-.32,0a3.16,3.16,0,0,0-.32,0l-.24,0c-.07,0-.12.06-.14.16a1.75,1.75,0,0,0-.06.33c0,.13,0,.25,0,.38s0,.21,0,.26v2.94c0,.13,0,.28,0,.45a2.84,2.84,0,0,0,.06.5,2.15,2.15,0,0,0,.14.47.69.69,0,0,0,.31.32,1.46,1.46,0,0,0,.52.12c.25,0,.51.05.8.06l.8,0,.55,0h.59l.53,0,.57,0,.5-.08a1.5,1.5,0,0,0,.38-.15,1.76,1.76,0,0,0,.49-.52c.14-.24.28-.47.41-.71s.25-.44.37-.62.23-.27.33-.27.23,0,.25.15a.46.46,0,0,1-.05.3s0,.07,0,.18a1.32,1.32,0,0,1-.06.2l-.09.39c0,.22-.1.44-.16.68s-.13.57-.22,1a.49.49,0,0,1-.46.22h-8.77l-.52,0-.56,0-.41,0c-.13,0-.2-.11-.2-.3s.07-.17.23-.22.34-.09.56-.14a4.75,4.75,0,0,0,.64-.2,1.07,1.07,0,0,0,.49-.36,1.9,1.9,0,0,0,.2-.73c0-.33,0-.7,0-1.1s0-.81,0-1.23,0-.78,0-1.09c0-1,0-2,0-3s0-2,0-3v-.49a.52.52,0,0,0,0-.17.7.7,0,0,0-.35-.64,2,2,0,0,0-.66-.21c-.24,0-.46,0-.65-.09s-.29-.13-.29-.28a.24.24,0,0,1,.16-.24,1.67,1.67,0,0,1,.37-.09,3.32,3.32,0,0,1,.46,0h.4c.43,0,.84,0,1.27,0s.84,0,1.28,0c.86,0,1.69,0,2.52,0s1.66,0,2.51,0h.21a2.83,2.83,0,0,1,.41,0c.13,0,.21.09.23.19a2.93,2.93,0,0,1,.08.69c0,.11,0,.25,0,.4V48a5,5,0,0,1,0,.7c0,.22-.09.33-.19.35"/><path class="cls-1" d="M245.15,46.15a4,4,0,0,0-.18,1c0,.39-.07.76-.11,1.14a6.51,6.51,0,0,1-.19,1c-.08.28-.21.41-.4.41s-.23,0-.26-.17a1.63,1.63,0,0,1,0-.45c0-.18,0-.37.05-.58a1.46,1.46,0,0,0-.09-.6.78.78,0,0,0-.36-.36,2.09,2.09,0,0,0-.64-.2,6.24,6.24,0,0,0-.8-.1l-.78,0h-1.12a.32.32,0,0,0-.2.07.71.71,0,0,0-.12.3,2.74,2.74,0,0,0-.05.65l0,2.26c0,1.1,0,2.18,0,3.28s0,2.17,0,3.27c0,.19,0,.39,0,.59a4.12,4.12,0,0,0,.07.59.87.87,0,0,0,.46.7,2.4,2.4,0,0,0,.78.22l.74.08c.21,0,.32.11.32.26s-.05.31-.13.32l-.37,0c-.5,0-1,0-1.48-.05s-1,0-1.47,0-.9,0-1.33,0-.89.05-1.34.05l-.3,0c-.1,0-.16-.09-.16-.22a.28.28,0,0,1,.17-.29,1,1,0,0,1,.35-.07.76.76,0,0,0,.24,0,3,3,0,0,0,.87-.18,1.09,1.09,0,0,0,.49-.36A1.3,1.3,0,0,0,238,58a5.44,5.44,0,0,0,.06-.88v-9c0-.07,0-.18,0-.35s0-.28,0-.34-.17-.19-.42-.24a5.63,5.63,0,0,0-.84-.06h-1.15a2.87,2.87,0,0,0-.83.12,1.94,1.94,0,0,0-.77.48,1.4,1.4,0,0,0-.24.39l-.32.62c-.11.21-.22.41-.33.59s-.18.25-.23.25a.47.47,0,0,1-.28-.07.35.35,0,0,1-.09-.28,3.37,3.37,0,0,1,.15-.85,8.71,8.71,0,0,0,.24-1.49c0-.14,0-.28,0-.43a1.65,1.65,0,0,1,.08-.42.62.62,0,0,1,.2-.31.53.53,0,0,1,.37-.12.21.21,0,0,1,.16.09l.15.21a1,1,0,0,0,.26.23.84.84,0,0,0,.43.14l2.29.08,2.28,0,1.72,0,1.72,0h.57a3.43,3.43,0,0,0,.56-.05.7.7,0,0,0,.38-.17,1.66,1.66,0,0,0,.26-.27,3.16,3.16,0,0,0,.18-.27.21.21,0,0,1,.17-.12.37.37,0,0,1,.4.24.74.74,0,0,1,0,.44"/><path class="cls-1" d="M260.75,52.81a7.1,7.1,0,0,1-.56,2.82,7.28,7.28,0,0,1-3.9,3.89,6.84,6.84,0,0,1-2.86.59,7,7,0,0,1-2.77-.53,6.29,6.29,0,0,1-2.19-1.48,6.86,6.86,0,0,1-1.42-2.23,8.14,8.14,0,0,1,0-5.7,7.06,7.06,0,0,1,1.46-2.29,6.77,6.77,0,0,1,2.22-1.51,7.15,7.15,0,0,1,2.81-.55,7.62,7.62,0,0,1,2.78.51,7.32,7.32,0,0,1,2.29,1.43A6.71,6.71,0,0,1,260.18,50a6.89,6.89,0,0,1,.57,2.84m-2.3-.84a9.17,9.17,0,0,0-.72-2.26,6.41,6.41,0,0,0-1.28-1.85,4.5,4.5,0,0,0-4.15-1.26A4.14,4.14,0,0,0,249,49.35a6.65,6.65,0,0,0-.38,2.15,12.16,12.16,0,0,0,.2,2.2,10.66,10.66,0,0,0,.64,2.19,6.73,6.73,0,0,0,1.2,1.94,4.85,4.85,0,0,0,1.8,1.26,4.3,4.3,0,0,0,2.47.16,4,4,0,0,0,2.18-1,4.79,4.79,0,0,0,1.17-1.83,6.81,6.81,0,0,0,.39-2.22,12.3,12.3,0,0,0-.17-2.23"/><path class="cls-1" d="M263,60.26c-.09,0-.15-.08-.18-.23a4.44,4.44,0,0,1,0-.55c0-.21,0-.43,0-.65s0-.4,0-.54c0-.32,0-.61,0-.87s0-.55,0-.88a.3.3,0,0,1,.08-.22.25.25,0,0,1,.13-.06.32.32,0,0,1,.14,0h.13a.24.24,0,0,1,.2.16,2,2,0,0,1,.13.39c0,.16.08.32.12.5a2.25,2.25,0,0,0,.16.44,2.4,2.4,0,0,0,1,1.12,2.9,2.9,0,0,0,1.47.4,2.86,2.86,0,0,0,1-.18,2.3,2.3,0,0,0,.83-.51,2.44,2.44,0,0,0,.55-.79,2.94,2.94,0,0,0,.19-1.06,2.24,2.24,0,0,0-.48-1.47,5,5,0,0,0-1.17-1.06,14.07,14.07,0,0,0-1.54-.87,10.56,10.56,0,0,1-1.53-.93,4.9,4.9,0,0,1-1.18-1.18,2.84,2.84,0,0,1-.48-1.69,3.63,3.63,0,0,1,.33-1.58,3.44,3.44,0,0,1,.88-1.17,3.89,3.89,0,0,1,1.31-.73,5,5,0,0,1,1.59-.25,2,2,0,0,1,.87.21,4.8,4.8,0,0,1,.82.41c.14.07.24.08.31,0a1,1,0,0,0,.19-.3,2,2,0,0,1,.24-.35.51.51,0,0,1,.42-.17c.08,0,.14.07.16.19a2,2,0,0,1,0,.45c0,.17,0,.35,0,.54a4.64,4.64,0,0,0,0,.48,17.77,17.77,0,0,1-.05,1.93.77.77,0,0,1-.09.23.27.27,0,0,1-.14.05.41.41,0,0,1-.15,0l-.12,0c-.08,0-.14,0-.19-.16a3.14,3.14,0,0,1-.13-.4c0-.16-.08-.32-.11-.49a1.55,1.55,0,0,0-.17-.44,2.49,2.49,0,0,0-.87-1.09,2.1,2.1,0,0,0-1.17-.39,3.1,3.1,0,0,0-.92.14,2.55,2.55,0,0,0-.76.43,2.1,2.1,0,0,0-.52.69,2.25,2.25,0,0,0-.18.92,2,2,0,0,0,.51,1.36,5.26,5.26,0,0,0,1.26,1,17.8,17.8,0,0,0,1.57.85,11.37,11.37,0,0,1,1.45.8,3.53,3.53,0,0,1,1.22,1.35,4.1,4.1,0,0,1,.46,1.79,4.57,4.57,0,0,1-.33,1.79,3.64,3.64,0,0,1-.91,1.29,4,4,0,0,1-1.39.79,5.88,5.88,0,0,1-1.78.28,2.84,2.84,0,0,1-.66-.08l-.58-.2-.5-.19a1,1,0,0,0-.43-.1.42.42,0,0,0-.33.12c-.06.09-.13.17-.2.28a1,1,0,0,1-.22.28.56.56,0,0,1-.4.12"/><path class="cls-1" d="M152,36.76a1.37,1.37,0,0,0,.18.62,1.15,1.15,0,0,0,1,.45,1.74,1.74,0,0,0,.61-.1.69.69,0,0,0,.52-.68.59.59,0,0,0-.22-.53,2.39,2.39,0,0,0-.71-.27l-.59-.13a2.53,2.53,0,0,1-.82-.3,1,1,0,0,1-.42-.85,1.3,1.3,0,0,1,.41-1,1.62,1.62,0,0,1,1.16-.4,2,2,0,0,1,1.17.35,1.25,1.25,0,0,1,.49,1.09h-.58a1.11,1.11,0,0,0-.19-.55,1.06,1.06,0,0,0-.91-.35,1,1,0,0,0-.74.22.74.74,0,0,0-.23.53.51.51,0,0,0,.27.48,3.59,3.59,0,0,0,.8.25l.61.15a1.72,1.72,0,0,1,.68.28,1.08,1.08,0,0,1,.42.92,1.16,1.16,0,0,1-.54,1.07,2.26,2.26,0,0,1-1.23.32,1.79,1.79,0,0,1-1.28-.43,1.48,1.48,0,0,1-.46-1.15Z"/><path class="cls-1" d="M153.13,38.45a1.92,1.92,0,0,1-1.36-.46,1.56,1.56,0,0,1-.49-1.24v-.1h.79v.1a1.24,1.24,0,0,0,.16.57,1,1,0,0,0,.94.39,1.6,1.6,0,0,0,.56-.09.59.59,0,0,0,.46-.57.48.48,0,0,0-.18-.44,2.06,2.06,0,0,0-.66-.25l-.6-.14a2.66,2.66,0,0,1-.86-.31,1.08,1.08,0,0,1-.46-.94,1.43,1.43,0,0,1,.44-1.07,1.74,1.74,0,0,1,1.24-.42,2.11,2.11,0,0,1,1.24.36,1.36,1.36,0,0,1,.52,1.18v.11h-.78V35a1.17,1.17,0,0,0-.17-.51,1,1,0,0,0-.82-.3.91.91,0,0,0-.66.19.59.59,0,0,0-.2.45.41.41,0,0,0,.22.39,3.65,3.65,0,0,0,.76.23l.61.15a1.86,1.86,0,0,1,.72.3,1.21,1.21,0,0,1,.47,1,1.26,1.26,0,0,1-.59,1.16A2.39,2.39,0,0,1,153.13,38.45Zm-1.63-1.58a1.34,1.34,0,0,0,.42,1,1.7,1.7,0,0,0,1.21.4,2.16,2.16,0,0,0,1.18-.31,1,1,0,0,0,.48-1,1,1,0,0,0-.38-.83,1.75,1.75,0,0,0-.64-.27l-.61-.14a4.89,4.89,0,0,1-.83-.26.65.65,0,0,1-.32-.58.87.87,0,0,1,.26-.61,1.15,1.15,0,0,1,.82-.26,1.2,1.2,0,0,1,1,.4,1.26,1.26,0,0,1,.2.51h.36a1.09,1.09,0,0,0-.43-.89,1.84,1.84,0,0,0-1.11-.32,1.54,1.54,0,0,0-1.08.35,1.21,1.21,0,0,0-.38.92.84.84,0,0,0,.37.76,2.66,2.66,0,0,0,.78.28l.6.14a2.12,2.12,0,0,1,.74.28.72.72,0,0,1,.27.62.8.8,0,0,1-.6.78,1.83,1.83,0,0,1-.64.1,1.23,1.23,0,0,1-1.12-.49,1.28,1.28,0,0,1-.19-.57Z"/><polygon class="cls-1" points="136.12 33.13 136.95 34.89 138.81 35.18 137.47 36.55 137.78 38.49 136.12 37.58 134.46 38.49 134.78 36.55 133.44 35.18 135.29 34.89 136.12 33.13"/><polygon class="cls-1" points="144.61 33.13 145.44 34.89 147.3 35.18 145.95 36.55 146.27 38.49 144.61 37.58 142.95 38.49 143.27 36.55 141.93 35.18 143.78 34.89 144.61 33.13"/><polygon class="cls-1" points="127.63 33.13 128.47 34.89 130.31 35.18 128.97 36.55 129.29 38.49 127.63 37.58 125.97 38.49 126.29 36.55 124.95 35.18 126.81 34.89 127.63 33.13"/><polygon class="cls-1" points="119.14 33.13 119.98 34.89 121.83 35.18 120.48 36.55 120.8 38.49 119.14 37.58 117.48 38.49 117.8 36.55 116.47 35.18 118.31 34.89 119.14 33.13"/><rect class="cls-1" x="158.05" y="35.52" width="113.42" height="1.03"/><rect class="cls-1" y="35.52" width="111.47" height="1.03"/><rect class="cls-1" x="120.45" y="3.96" width="31" height="2.28"/><path class="cls-1" d="M143.24,5.89H128.67V2.83l.22-.15c5.06-3.58,10-3.57,14.17,0l.18.15Zm-13.56-1h12.54V3.33c-3.72-3.07-8-3.06-12.54,0Z"/><rect class="cls-1" x="132.66" y="5.46" width="6.77" height="4.02"/><rect class="cls-1" x="122.39" y="12.15" width="2.9" height="15.76"/><rect class="cls-1" x="127.24" y="12.15" width="2.89" height="15.76"/><rect class="cls-1" x="132.09" y="12.15" width="2.89" height="15.76"/><rect class="cls-1" x="136.93" y="12.15" width="2.89" height="15.76"/><rect class="cls-1" x="141.77" y="12.15" width="2.9" height="15.76"/><rect class="cls-1" x="146.62" y="12.15" width="2.89" height="15.76"/><rect class="cls-1" x="109.23" y="9.37" width="9.78" height="18.45"/><rect class="cls-1" x="98.04" y="15.13" width="9.78" height="12.78"/><rect class="cls-1" x="152.45" y="9.37" width="9.78" height="18.45"/><rect class="cls-1" x="163.65" y="14.97" width="9.78" height="12.78"/></g></g></svg>