<?xml version="1.0" encoding="UTF-8" standalone="no"?>
<!-- Created with Inkscape (http://www.inkscape.org/) -->

<svg
   width="410"
   height="95.263161"
   viewBox="0 0 108.47916 25.205045"
   version="1.1"
   id="svg16957"
   inkscape:version="1.1.2 (0a00cf5339, 2022-02-04)"
   sodipodi:docname="logo_dark.svg"
   xmlns:inkscape="http://www.inkscape.org/namespaces/inkscape"
   xmlns:sodipodi="http://sodipodi.sourceforge.net/DTD/sodipodi-0.dtd"
   xmlns="http://www.w3.org/2000/svg"
   xmlns:svg="http://www.w3.org/2000/svg">
  <sodipodi:namedview
     id="namedview16959"
     pagecolor="#000000"
     bordercolor="#999999"
     borderopacity="1"
     inkscape:pageshadow="0"
     inkscape:pageopacity="0"
     inkscape:pagecheckerboard="0"
     inkscape:document-units="mm"
     showgrid="false"
     units="px"
     fit-margin-top="1"
     fit-margin-bottom="1"
     fit-margin-right="1"
     fit-margin-left="1"
     inkscape:zoom="1.3224547"
     inkscape:cx="161.82028"
     inkscape:cy="74.104616"
     inkscape:window-width="2289"
     inkscape:window-height="1263"
     inkscape:window-x="253"
     inkscape:window-y="65"
     inkscape:window-maximized="0"
     inkscape:current-layer="g13380"
     objecttolerance="6.5" />
  <defs
     id="defs16954">
    <inkscape:path-effect
       effect="bspline"
       id="path-effect69861"
       is_visible="true"
       lpeversion="1"
       weight="33.333333"
       steps="2"
       helper_size="0"
       apply_no_weight="true"
       apply_with_weight="true"
       only_selected="false" />
    <inkscape:path-effect
       effect="bspline"
       id="path-effect69865"
       is_visible="true"
       lpeversion="1"
       weight="33.333333"
       steps="2"
       helper_size="0"
       apply_no_weight="true"
       apply_with_weight="true"
       only_selected="false" />
    <inkscape:path-effect
       effect="bspline"
       id="path-effect69897"
       is_visible="true"
       lpeversion="1"
       weight="33.333333"
       steps="2"
       helper_size="0"
       apply_no_weight="true"
       apply_with_weight="true"
       only_selected="false" />
    <inkscape:path-effect
       effect="bspline"
       id="path-effect69945"
       is_visible="true"
       lpeversion="1"
       weight="33.333333"
       steps="2"
       helper_size="0"
       apply_no_weight="true"
       apply_with_weight="true"
       only_selected="false" />
  </defs>
  <g
     inkscape:label="Layer 1"
     inkscape:groupmode="layer"
     id="layer1"
     transform="translate(-113.02788,-61.337673)">
    <g
       id="Fondo"
       style="clip-rule:evenodd;fill:#f7ed16;fill-opacity:1;fill-rule:evenodd;stroke-width:2.13357;stroke-linejoin:round;stroke-miterlimit:2"
       transform="matrix(0.12400974,0,0,0.12400974,118.5441,61.547687)" />
    <g
       id="g13380"
       transform="matrix(1.0532724,0,0,1.0532724,-10.298762,-3.3752482)">
      <path
         id="path12376"
         style="font-weight:bold;font-size:11.796px;line-height:1.25;font-family:'Sans Mateo 2';-inkscape-font-specification:'Sans Mateo 2, Bold';letter-spacing:-0.644566px;fill:#ffffff;stroke-width:0.703705"
         d="m 135.79622,66.280532 c -1.59814,0 -2.87085,0.835144 -4.4948,1.085641 -0.90803,0.140066 -1.29521,-0.845464 -2.21244,-0.909622 h -0.8901 c -0.48649,0 -1.0195,-0.122805 -1.62122,-0.07099 -0.30408,0.02618 -0.54329,0.137891 -0.84056,0.07099 h -0.8901 c -0.48649,0 -1.01951,-0.122805 -1.6212,-0.07099 -0.30411,0.02618 -0.54333,0.137891 -0.84058,0.07099 h -0.8901 c -0.92662,0 -2.19356,0.368566 -2.99046,1.255493 -0.7969,0.886926 -0.97003,1.908144 -0.97003,2.723288 v 7.190088 c 1.7e-4,1.489218 1.25746,2.696426 2.80844,2.696594 h 0.8901 c 0.48679,0 1.02085,0.124505 1.62424,0.07224 0.30298,-0.02624 0.5414,-0.139054 0.83753,-0.07224 h 0.8901 c 0.4868,0 1.02086,0.124505 1.62425,0.07224 0.30297,-0.02624 0.54141,-0.139054 0.83754,-0.07224 h 0.89011 c 0.91611,0 2.33612,-1.033296 3.49589,-0.846863 1.15976,0.186433 2.67309,1.022883 4.36339,1.022883 1.14693,0 2.20045,-0.195562 3.35406,-0.342358 0.52455,-0.06675 0.91207,0.109572 1.43787,0.166338 h 0.86406 c 0.91975,0 2.18284,-0.36931 2.97394,-1.252571 0.45818,-0.511558 0.25468,-0.82754 0.82276,-0.785236 0.61052,0.04546 0.5067,0.290381 0.98177,0.759375 0.96447,0.952127 2.31184,1.278432 3.41705,1.278432 h 3.8623 0.53693 0.77281 c 0.76118,0 1.52982,-0.504553 2.49523,-0.492517 1.03397,0.0129 1.8343,0.618066 2.7411,0.618066 h 1.21765 c 1.55098,-1.67e-4 3.25309,-1.207377 3.25327,-2.696595 v -8.597822 c -1.8e-4,-1.489217 -1.70229,-2.696427 -3.25327,-2.696595 h -0.77238 c -0.70609,0 -1.61984,0.252604 -2.34319,0.759552 -0.4985,-0.529682 -1.19538,-0.847974 -1.93788,-0.885101 h -0.82452 c -0.47692,0 -1.02922,0.08045 -1.56994,0.271955 -0.11902,-0.05712 -0.24212,-0.106042 -0.36837,-0.146406 h -4.04521 c -0.76043,0 -1.53095,0.218041 -2.45785,0.223065 -1.07846,0.006 -2.04052,-0.223065 -3.08038,-0.223065 h -1.50567 c -0.86961,0 -1.7058,0.44961 -2.76022,0.396166 -1.33719,-0.06778 -2.49816,-0.572185 -3.81192,-0.572185 z m 50.03801,0 c -1.54202,0 -3.12586,0.464689 -4.35882,1.391469 -0.48478,-0.711691 -1.29073,-1.16216 -2.17466,-1.21545 h -1.33492 c -0.6799,0 -1.35476,0.02032 -2.1564,0.05413 -0.53404,0.02253 -0.96259,-0.04082 -1.49696,-0.05413 h -1.07342 c -0.79662,0 -1.59849,0.378051 -2.57126,0.376976 -0.97627,-0.001 -1.78048,-0.376976 -2.57342,-0.376976 h -1.08688 c -2.13907,4.27e-4 -3.93755,2.20483 -2.90227,4.00214 l -1.05041,2.809213 1.31756,3.020271 c -1.06869,1.797686 0.28297,4.033412 2.43876,4.033839 h 1.07343 c 0.85136,0 1.67857,-0.475891 2.69679,-0.471661 1.03354,0.0043 1.87609,0.471661 2.73633,0.471661 h 1.09948 0.52432 c 0.76306,0 1.69183,-0.19165 2.47482,-0.745785 0.18585,-0.131533 0.28048,-0.04186 0.50522,-0.03412 0.2406,0.0083 0.34523,-0.07984 0.54475,0.05706 0.79459,0.545241 1.71113,0.722844 2.4709,0.722844 h 1.02129 c 0.39156,-0.01012 0.74122,0.101986 1.13032,0.145239 0.90986,0.101139 1.78668,0.03077 2.69289,0.03077 1.17073,0 2.13381,2.15e-4 3.23982,-0.03035 0.91193,-0.02526 1.77713,0.03035 2.67811,0.03035 1.33222,0 2.50549,-0.503953 3.8597,-0.579693 1.06306,-0.05945 1.91477,0.403675 2.80453,0.403675 h 1.92442 c 1.0096,0 1.94019,-0.179047 3.01348,-0.199293 0.91597,-0.01727 1.69392,0.199293 2.47222,0.199293 h 3.86187 c 0.3255,-0.06837 0.58727,-0.01024 0.91618,0.04096 0.98413,0.153162 1.92278,0.135056 2.90747,0.135056 1.76828,0 3.61983,-0.512595 4.90445,-1.796063 1.31917,-1.317998 1.75241,-3.091122 1.75241,-4.847612 V 72.91169 c 0,-1.727999 -0.45525,-3.480749 -1.72764,-4.785049 -1.27534,-1.307272 -3.14828,-1.846115 -4.92922,-1.846115 -0.98866,0 -1.92991,-0.0015 -2.92094,0.150491 -0.34316,0.0526 -0.61481,0.09439 -0.95483,0.02553 h -4.04521 c -0.76921,0 -1.54701,0.241669 -2.48611,0.236413 -1.08619,-0.0061 -2.01332,-0.236413 -3.02607,-0.236413 h -1.89836 c -0.83028,0 -1.64157,0.424527 -2.66552,0.373226 -1.31849,-0.06606 -2.46699,-0.549245 -3.76283,-0.549245 -0.90714,0 -1.82748,0.163821 -2.69809,0.452145 -0.0251,0.0083 -0.0391,-0.03664 -0.0643,-0.04463 -0.98615,-0.314021 -2.00408,-0.407514 -3.10297,-0.407514 z m 18.37323,12.881508 c -0.007,0.0047 -0.015,0.01002 -0.0131,0.0079 0.005,-0.0031 0.009,-0.0047 0.0131,-0.0079 z"
         sodipodi:nodetypes="sscsscsscsssccsscsscscsscssssssssssccccsccsccsssssssccsscssscccccssscssssscssssssssscssssscsscsssssssssccc" />
      <g
         id="g1836"
         transform="matrix(0.94792176,0,0,0.94792176,-2.8693529,32.57826)"
         style="fill:#0d2538;fill-opacity:1">
        <path
           d="m 129.99594,47.621086 v -7.899641 q 0,-1.408687 1.21532,-1.408687 h 0.93912 v 7.927263 q 0,1.381065 -1.21533,1.381065 z"
           style="font-weight:bold;font-size:11.796px;line-height:1.25;font-family:'Sans Mateo 2';-inkscape-font-specification:'Sans Mateo 2, Bold';letter-spacing:-0.644566px;fill:#0d2538;fill-opacity:1;stroke-width:0.757605"
           id="path68630" />
        <path
           d="m 133.53207,47.621086 v -7.899641 q 0,-1.408687 1.21533,-1.408687 h 0.93912 v 7.927263 q 0,1.381065 -1.21533,1.381065 z"
           style="font-weight:bold;font-size:11.796px;line-height:1.25;font-family:'Sans Mateo 2';-inkscape-font-specification:'Sans Mateo 2, Bold';letter-spacing:-0.644566px;fill:#0d2538;fill-opacity:1;stroke-width:0.757605"
           id="path68632" />
        <path
           d="m 137.06821,47.621086 v -7.899641 q 0,-1.408687 1.21533,-1.408687 h 0.93912 v 7.927263 q 0,1.381065 -1.21533,1.381065 z"
           style="font-weight:bold;font-size:11.796px;line-height:1.25;font-family:'Sans Mateo 2';-inkscape-font-specification:'Sans Mateo 2, Bold';letter-spacing:-0.644566px;fill:#0d2538;fill-opacity:1;stroke-width:0.757605"
           id="path68634" />
        <path
           d="m 146.29805,47.81443 q -2.01635,0 -3.05213,-1.063409 -1.02199,-1.063421 -1.02199,-3.273105 v -1.035799 q 0,-2.140629 1.02199,-3.231672 1.03578,-1.091031 3.05213,-1.091031 2.01635,0 3.03832,1.091031 1.02199,1.091043 1.02199,3.231672 v 1.035799 q 0,2.209684 -1.02199,3.273105 -1.02197,1.063409 -3.03832,1.063409 z m 0,-1.753941 q 0.89768,0 1.35344,-0.635288 0.46955,-0.635288 0.46955,-1.905852 v -1.104854 q 0,-1.256753 -0.46955,-1.892041 -0.45576,-0.649099 -1.35344,-0.649099 -0.91149,0 -1.38106,0.649099 -0.45574,0.635288 -0.45574,1.892041 v 1.104854 q 0,1.270564 0.45574,1.905852 0.46957,0.635288 1.38106,0.635288 z"
           style="font-weight:bold;font-size:11.796px;line-height:1.25;font-family:'Sans Mateo 2';-inkscape-font-specification:'Sans Mateo 2, Bold';letter-spacing:-0.644566px;fill:#0d2538;fill-opacity:1;stroke-width:0.757605"
           id="path68636" />
        <path
           d="m 151.35335,47.621086 v -7.402464 q 0,-1.905864 1.87824,-1.905864 h 1.58821 q 3.43884,0 3.43884,3.121195 0,3.121183 -3.43884,3.121183 h -1.36724 v 1.684885 q 0,1.381065 -1.18771,1.381065 z m 2.09921,-4.709403 h 1.16008 q 0.75958,0 1.13247,-0.372888 0.37289,-0.372888 0.37289,-1.104842 0,-0.773399 -0.40051,-1.118653 -0.4005,-0.359078 -1.10485,-0.359078 h -0.58004 q -0.58004,0 -0.58004,0.649099 z"
           style="font-weight:bold;font-size:11.796px;line-height:1.25;font-family:'Sans Mateo 2';-inkscape-font-specification:'Sans Mateo 2, Bold';letter-spacing:-0.644566px;fill:#0d2538;fill-opacity:1;stroke-width:0.757605"
           id="path68638" />
        <path
           d="m 160.91089,47.621086 q -1.97491,0 -1.97491,-2.030152 V 40.08051 q 0,-1.767752 1.72632,-1.767752 h 4.26747 q 0,1.698709 -1.67107,1.698709 h -1.67109 q -0.56623,0 -0.56623,0.566232 v 1.477731 h 2.44447 q 0.82863,0 0.82863,0.842442 0,0.856254 -0.82863,0.856254 h -2.44447 v 1.381053 q 0,0.78721 0.80101,0.78721 h 1.46392 q 1.69871,0 1.69871,1.698697 z"
           style="font-weight:bold;font-size:11.796px;line-height:1.25;font-family:'Sans Mateo 2';-inkscape-font-specification:'Sans Mateo 2, Bold';letter-spacing:-0.644566px;fill:#0d2538;fill-opacity:1;stroke-width:0.757605"
           id="path68640" />
        <path
           d="m 165.55187,47.621086 v -7.913452 q 0,-1.532975 1.4225,-1.532975 h 0.87006 l 3.42502,6.656687 v -5.137523 q 0,-1.381065 1.09103,-1.381065 h 0.81482 v 9.446427 h -1.28437 q -1.02199,0 -1.46392,-0.856254 l -2.96928,-5.841867 v 5.178957 q 0,1.381065 -1.09103,1.381065 z"
           style="font-weight:bold;font-size:11.796px;line-height:1.25;font-family:'Sans Mateo 2';-inkscape-font-specification:'Sans Mateo 2, Bold';letter-spacing:-0.644566px;fill:#0d2538;fill-opacity:1;stroke-width:0.757605"
           id="path68642" />
        <path
           d="m 179.01717,47.621086 2.72068,-4.764647 -2.51352,-4.543681 h 1.14628 q 1.14628,0 1.53298,0.731966 l 1.17388,2.195873 1.18771,-2.195873 q 0.40051,-0.731966 1.53298,-0.731966 h 1.13246 l -2.63782,4.626548 2.74831,4.68178 h -1.16009 q -1.1739,0 -1.60203,-0.773399 l -1.29818,-2.306362 -1.27058,2.306362 q -0.42812,0.773399 -1.56059,0.773399 z"
           style="font-weight:bold;font-size:11.796px;line-height:1.25;font-family:'Sans Mateo 2';-inkscape-font-specification:'Sans Mateo 2, Bold';letter-spacing:-0.644566px;fill:#0d2538;fill-opacity:1;stroke-width:0.757605"
           id="path68644" />
        <path
           d="m 186.54457,47.621086 2.47208,-8.148241 q 0.34527,-1.160087 1.76775,-1.160087 h 1.40868 l 2.80355,9.308328 h -1.07722 q -1.09103,0 -1.35344,-0.966743 l -0.26239,-0.952932 h -3.13501 l -0.26238,0.952932 q -0.26243,0.966743 -1.31201,0.966743 z m 3.06594,-3.507882 h 2.26493 l -1.11866,-4.170793 z"
           style="font-weight:bold;font-size:11.796px;line-height:1.25;font-family:'Sans Mateo 2';-inkscape-font-specification:'Sans Mateo 2, Bold';letter-spacing:-0.644566px;fill:#0d2538;fill-opacity:1;stroke-width:0.757605"
           id="path68646" />
        <path
           d="m 199.02995,47.81443 q -2.14064,0 -3.19024,-1.160087 -1.0358,-1.173898 -1.0358,-2.789728 v -1.615842 q 0,-1.629641 1.07723,-2.872594 1.09103,-1.256765 3.20405,-1.256765 1.42249,0 2.3616,0.303833 0,1.671075 -1.13247,1.671075 -0.13809,0 -0.51099,-0.09663 -0.37288,-0.110537 -0.73196,-0.110537 -0.9253,0 -1.47772,0.759576 -0.53862,0.759588 -0.53862,1.86443 v 1.049609 q 0,1.091032 0.52481,1.781564 0.5248,0.676709 1.49153,0.676709 0.44194,0 0.82865,-0.124288 0.38669,-0.1243 0.5386,-0.1243 1.06341,0 1.06341,1.726319 -0.88388,0.317644 -2.47207,0.317644 z"
           style="font-weight:bold;font-size:11.796px;line-height:1.25;font-family:'Sans Mateo 2';-inkscape-font-specification:'Sans Mateo 2, Bold';letter-spacing:-0.644566px;fill:#0d2538;fill-opacity:1;stroke-width:0.757605"
           id="path68648" />
        <path
           d="m 205.27295,47.81443 q -2.01634,0 -3.05213,-1.063409 -1.02199,-1.063421 -1.02199,-3.273105 v -1.035799 q 0,-2.140629 1.02199,-3.231672 1.03579,-1.091031 3.05213,-1.091031 2.01636,0 3.03834,1.091031 1.02197,1.091043 1.02197,3.231672 v 1.035799 q 0,2.209684 -1.02197,3.273105 -1.02198,1.063409 -3.03834,1.063409 z m 0,-1.753941 q 0.89768,0 1.35344,-0.635288 0.46955,-0.635288 0.46955,-1.905852 v -1.104854 q 0,-1.256753 -0.46955,-1.892041 -0.45576,-0.649099 -1.35344,-0.649099 -0.91148,0 -1.38106,0.649099 -0.45574,0.635288 -0.45574,1.892041 v 1.104854 q 0,1.270564 0.45574,1.905852 0.46958,0.635288 1.38106,0.635288 z"
           style="font-weight:bold;font-size:11.796px;line-height:1.25;font-family:'Sans Mateo 2';-inkscape-font-specification:'Sans Mateo 2, Bold';letter-spacing:-0.644566px;fill:#0d2538;fill-opacity:1;stroke-width:0.757605"
           id="path68650" />
        <path
           d="m 212.30316,47.621086 q -1.97491,0 -1.97491,-2.030152 V 40.08051 q 0,-1.767752 1.72633,-1.767752 h 2.00252 q 1.43631,0 2.1959,0.593855 0.75957,0.593854 0.75957,1.795374 0,1.781564 -1.40867,2.113019 1.79536,0.40051 1.79536,2.27874 0,1.284386 -0.7872,1.905863 -0.77338,0.621477 -2.27875,0.621477 z m 0.0828,-5.482802 h 1.39487 q 1.21534,0 1.21534,-1.132464 0,-0.552421 -0.30383,-0.828632 -0.30385,-0.27621 -0.9115,-0.27621 h -0.82863 q -0.56624,0 -0.56624,0.566232 z m 0.7872,3.894582 h 0.7872 q 0.63529,0 0.95293,-0.290021 0.33145,-0.303833 0.33145,-0.883877 0,-1.20152 -1.28438,-1.20152 h -1.5744 v 1.602031 q 0,0.773387 0.7872,0.773387 z"
           style="font-weight:bold;font-size:11.796px;line-height:1.25;font-family:'Sans Mateo 2';-inkscape-font-specification:'Sans Mateo 2, Bold';letter-spacing:-0.644566px;fill:#0d2538;fill-opacity:1;stroke-width:0.757605"
           id="path68652" />
        <path
           d="m 220.12057,47.621086 q -1.97491,0 -1.97491,-2.030152 V 40.08051 q 0,-1.767752 1.72633,-1.767752 h 4.26746 q 0,1.698709 -1.67109,1.698709 h -1.67106 q -0.56623,0 -0.56623,0.566232 v 1.477731 h 2.44447 q 0.82863,0 0.82863,0.842442 0,0.856254 -0.82863,0.856254 h -2.44447 v 1.381053 q 0,0.78721 0.80101,0.78721 h 1.46392 q 1.69869,0 1.69869,1.698697 z"
           style="font-weight:bold;font-size:11.796px;line-height:1.25;font-family:'Sans Mateo 2';-inkscape-font-specification:'Sans Mateo 2, Bold';letter-spacing:-0.644566px;fill:#0d2538;fill-opacity:1;stroke-width:0.757605"
           id="path68654" />
        <path
           d="m 228.22802,47.81443 q -2.01634,0 -3.05214,-1.063409 -1.02197,-1.063421 -1.02197,-3.273105 v -1.035799 q 0,-2.140629 1.02197,-3.231672 1.0358,-1.091031 3.05214,-1.091031 2.01634,0 3.03832,1.091031 1.02197,1.091043 1.02197,3.231672 v 1.035799 q 0,2.209684 -1.02197,3.273105 -1.02198,1.063409 -3.03832,1.063409 z m 0,-1.753941 q 0.89768,0 1.35342,-0.635288 0.46958,-0.635288 0.46958,-1.905852 v -1.104854 q 0,-1.256753 -0.46958,-1.892041 -0.45574,-0.649099 -1.35342,-0.649099 -0.9115,0 -1.38105,0.649099 -0.45577,0.635288 -0.45577,1.892041 v 1.104854 q 0,1.270564 0.45577,1.905852 0.46955,0.635288 1.38105,0.635288 z"
           style="font-weight:bold;font-size:11.796px;line-height:1.25;font-family:'Sans Mateo 2';-inkscape-font-specification:'Sans Mateo 2, Bold';letter-spacing:-0.644566px;fill:#0d2538;fill-opacity:1;stroke-width:0.757605"
           id="path68656" />
      </g>
    </g>
  </g>
</svg>
