<?xml version="1.0" encoding="UTF-8" standalone="no"?>
<!-- Created with Inkscape (http://www.inkscape.org/) -->

<svg
   width="500.47229"
   height="95.263161"
   viewBox="0 0 132.41662 25.205045"
   version="1.1"
   id="svg16957"
   inkscape:version="1.1.2 (0a00cf5339, 2022-02-04)"
   sodipodi:docname="logo_dark.svg"
   xmlns:inkscape="http://www.inkscape.org/namespaces/inkscape"
   xmlns:sodipodi="http://sodipodi.sourceforge.net/DTD/sodipodi-0.dtd"
   xmlns="http://www.w3.org/2000/svg"
   xmlns:svg="http://www.w3.org/2000/svg">
  <sodipodi:namedview
     id="namedview16959"
     pagecolor="#000000"
     bordercolor="#999999"
     borderopacity="1"
     inkscape:pageshadow="0"
     inkscape:pageopacity="0"
     inkscape:pagecheckerboard="0"
     inkscape:document-units="mm"
     showgrid="false"
     units="px"
     fit-margin-top="1"
     fit-margin-bottom="1"
     fit-margin-right="1"
     fit-margin-left="1"
     inkscape:zoom="1.28"
     inkscape:cx="218.35937"
     inkscape:cy="-87.109375"
     inkscape:window-width="2268"
     inkscape:window-height="1252"
     inkscape:window-x="259"
     inkscape:window-y="130"
     inkscape:window-maximized="0"
     inkscape:current-layer="layer1" />
  <defs
     id="defs16954">
    <inkscape:path-effect
       effect="bspline"
       id="path-effect69861"
       is_visible="true"
       lpeversion="1"
       weight="33.333333"
       steps="2"
       helper_size="0"
       apply_no_weight="true"
       apply_with_weight="true"
       only_selected="false" />
    <inkscape:path-effect
       effect="bspline"
       id="path-effect69865"
       is_visible="true"
       lpeversion="1"
       weight="33.333333"
       steps="2"
       helper_size="0"
       apply_no_weight="true"
       apply_with_weight="true"
       only_selected="false" />
    <inkscape:path-effect
       effect="bspline"
       id="path-effect69897"
       is_visible="true"
       lpeversion="1"
       weight="33.333333"
       steps="2"
       helper_size="0"
       apply_no_weight="true"
       apply_with_weight="true"
       only_selected="false" />
    <inkscape:path-effect
       effect="bspline"
       id="path-effect69945"
       is_visible="true"
       lpeversion="1"
       weight="33.333333"
       steps="2"
       helper_size="0"
       apply_no_weight="true"
       apply_with_weight="true"
       only_selected="false" />
  </defs>
  <g
     inkscape:label="Layer 1"
     inkscape:groupmode="layer"
     id="layer1"
     transform="translate(-113.02788,-61.337673)">
    <g
       id="Fondo"
       style="clip-rule:evenodd;fill:#f7ed16;fill-opacity:1;fill-rule:evenodd;stroke-width:2.13357;stroke-linejoin:round;stroke-miterlimit:2"
       transform="matrix(0.12400974,0,0,0.12400974,118.5441,61.547687)" />
    <g
       id="g1836"
       transform="matrix(1.0449197,0,0,1.0449197,1.3568686,29.254626)">
      <path
         d="m 129.99594,47.621086 v -7.899641 q 0,-1.408687 1.21532,-1.408687 h 0.93912 v 7.927263 q 0,1.381065 -1.21533,1.381065 z"
         style="font-weight:bold;font-size:11.796px;line-height:1.25;font-family:'Sans Mateo 2';-inkscape-font-specification:'Sans Mateo 2, Bold';letter-spacing:-0.644566px;fill:#a3b8de;fill-opacity:1;stroke-width:0.757605"
         id="path68630" />
      <path
         d="m 133.53207,47.621086 v -7.899641 q 0,-1.408687 1.21533,-1.408687 h 0.93912 v 7.927263 q 0,1.381065 -1.21533,1.381065 z"
         style="font-weight:bold;font-size:11.796px;line-height:1.25;font-family:'Sans Mateo 2';-inkscape-font-specification:'Sans Mateo 2, Bold';letter-spacing:-0.644566px;fill:#a3b8de;fill-opacity:1;stroke-width:0.757605"
         id="path68632" />
      <path
         d="m 137.06821,47.621086 v -7.899641 q 0,-1.408687 1.21533,-1.408687 h 0.93912 v 7.927263 q 0,1.381065 -1.21533,1.381065 z"
         style="font-weight:bold;font-size:11.796px;line-height:1.25;font-family:'Sans Mateo 2';-inkscape-font-specification:'Sans Mateo 2, Bold';letter-spacing:-0.644566px;fill:#a3b8de;fill-opacity:1;stroke-width:0.757605"
         id="path68634" />
      <path
         d="m 146.29805,47.81443 q -2.01635,0 -3.05213,-1.063409 -1.02199,-1.063421 -1.02199,-3.273105 v -1.035799 q 0,-2.140629 1.02199,-3.231672 1.03578,-1.091031 3.05213,-1.091031 2.01635,0 3.03832,1.091031 1.02199,1.091043 1.02199,3.231672 v 1.035799 q 0,2.209684 -1.02199,3.273105 -1.02197,1.063409 -3.03832,1.063409 z m 0,-1.753941 q 0.89768,0 1.35344,-0.635288 0.46955,-0.635288 0.46955,-1.905852 v -1.104854 q 0,-1.256753 -0.46955,-1.892041 -0.45576,-0.649099 -1.35344,-0.649099 -0.91149,0 -1.38106,0.649099 -0.45574,0.635288 -0.45574,1.892041 v 1.104854 q 0,1.270564 0.45574,1.905852 0.46957,0.635288 1.38106,0.635288 z"
         style="font-weight:bold;font-size:11.796px;line-height:1.25;font-family:'Sans Mateo 2';-inkscape-font-specification:'Sans Mateo 2, Bold';letter-spacing:-0.644566px;fill:#a3b8de;fill-opacity:1;stroke-width:0.757605"
         id="path68636" />
      <path
         d="m 151.35335,47.621086 v -7.402464 q 0,-1.905864 1.87824,-1.905864 h 1.58821 q 3.43884,0 3.43884,3.121195 0,3.121183 -3.43884,3.121183 h -1.36724 v 1.684885 q 0,1.381065 -1.18771,1.381065 z m 2.09921,-4.709403 h 1.16008 q 0.75958,0 1.13247,-0.372888 0.37289,-0.372888 0.37289,-1.104842 0,-0.773399 -0.40051,-1.118653 -0.4005,-0.359078 -1.10485,-0.359078 h -0.58004 q -0.58004,0 -0.58004,0.649099 z"
         style="font-weight:bold;font-size:11.796px;line-height:1.25;font-family:'Sans Mateo 2';-inkscape-font-specification:'Sans Mateo 2, Bold';letter-spacing:-0.644566px;fill:#a3b8de;fill-opacity:1;stroke-width:0.757605"
         id="path68638" />
      <path
         d="m 160.91089,47.621086 q -1.97491,0 -1.97491,-2.030152 V 40.08051 q 0,-1.767752 1.72632,-1.767752 h 4.26747 q 0,1.698709 -1.67107,1.698709 h -1.67109 q -0.56623,0 -0.56623,0.566232 v 1.477731 h 2.44447 q 0.82863,0 0.82863,0.842442 0,0.856254 -0.82863,0.856254 h -2.44447 v 1.381053 q 0,0.78721 0.80101,0.78721 h 1.46392 q 1.69871,0 1.69871,1.698697 z"
         style="font-weight:bold;font-size:11.796px;line-height:1.25;font-family:'Sans Mateo 2';-inkscape-font-specification:'Sans Mateo 2, Bold';letter-spacing:-0.644566px;fill:#a3b8de;fill-opacity:1;stroke-width:0.757605"
         id="path68640" />
      <path
         d="m 165.55187,47.621086 v -7.913452 q 0,-1.532975 1.4225,-1.532975 h 0.87006 l 3.42502,6.656687 v -5.137523 q 0,-1.381065 1.09103,-1.381065 h 0.81482 v 9.446427 h -1.28437 q -1.02199,0 -1.46392,-0.856254 l -2.96928,-5.841867 v 5.178957 q 0,1.381065 -1.09103,1.381065 z"
         style="font-weight:bold;font-size:11.796px;line-height:1.25;font-family:'Sans Mateo 2';-inkscape-font-specification:'Sans Mateo 2, Bold';letter-spacing:-0.644566px;fill:#a3b8de;fill-opacity:1;stroke-width:0.757605"
         id="path68642" />
      <path
         d="m 179.01717,47.621086 2.72068,-4.764647 -2.51352,-4.543681 h 1.14628 q 1.14628,0 1.53298,0.731966 l 1.17388,2.195873 1.18771,-2.195873 q 0.40051,-0.731966 1.53298,-0.731966 h 1.13246 l -2.63782,4.626548 2.74831,4.68178 h -1.16009 q -1.1739,0 -1.60203,-0.773399 l -1.29818,-2.306362 -1.27058,2.306362 q -0.42812,0.773399 -1.56059,0.773399 z"
         style="font-weight:bold;font-size:11.796px;line-height:1.25;font-family:'Sans Mateo 2';-inkscape-font-specification:'Sans Mateo 2, Bold';letter-spacing:-0.644566px;fill:#a3b8de;fill-opacity:1;stroke-width:0.757605"
         id="path68644" />
      <path
         d="m 186.54457,47.621086 2.47208,-8.148241 q 0.34527,-1.160087 1.76775,-1.160087 h 1.40868 l 2.80355,9.308328 h -1.07722 q -1.09103,0 -1.35344,-0.966743 l -0.26239,-0.952932 h -3.13501 l -0.26238,0.952932 q -0.26243,0.966743 -1.31201,0.966743 z m 3.06594,-3.507882 h 2.26493 l -1.11866,-4.170793 z"
         style="font-weight:bold;font-size:11.796px;line-height:1.25;font-family:'Sans Mateo 2';-inkscape-font-specification:'Sans Mateo 2, Bold';letter-spacing:-0.644566px;fill:#a3b8de;fill-opacity:1;stroke-width:0.757605"
         id="path68646" />
      <path
         d="m 199.02995,47.81443 q -2.14064,0 -3.19024,-1.160087 -1.0358,-1.173898 -1.0358,-2.789728 v -1.615842 q 0,-1.629641 1.07723,-2.872594 1.09103,-1.256765 3.20405,-1.256765 1.42249,0 2.3616,0.303833 0,1.671075 -1.13247,1.671075 -0.13809,0 -0.51099,-0.09663 -0.37288,-0.110537 -0.73196,-0.110537 -0.9253,0 -1.47772,0.759576 -0.53862,0.759588 -0.53862,1.86443 v 1.049609 q 0,1.091032 0.52481,1.781564 0.5248,0.676709 1.49153,0.676709 0.44194,0 0.82865,-0.124288 0.38669,-0.1243 0.5386,-0.1243 1.06341,0 1.06341,1.726319 -0.88388,0.317644 -2.47207,0.317644 z"
         style="font-weight:bold;font-size:11.796px;line-height:1.25;font-family:'Sans Mateo 2';-inkscape-font-specification:'Sans Mateo 2, Bold';letter-spacing:-0.644566px;fill:#a3b8de;fill-opacity:1;stroke-width:0.757605"
         id="path68648" />
      <path
         d="m 205.27295,47.81443 q -2.01634,0 -3.05213,-1.063409 -1.02199,-1.063421 -1.02199,-3.273105 v -1.035799 q 0,-2.140629 1.02199,-3.231672 1.03579,-1.091031 3.05213,-1.091031 2.01636,0 3.03834,1.091031 1.02197,1.091043 1.02197,3.231672 v 1.035799 q 0,2.209684 -1.02197,3.273105 -1.02198,1.063409 -3.03834,1.063409 z m 0,-1.753941 q 0.89768,0 1.35344,-0.635288 0.46955,-0.635288 0.46955,-1.905852 v -1.104854 q 0,-1.256753 -0.46955,-1.892041 -0.45576,-0.649099 -1.35344,-0.649099 -0.91148,0 -1.38106,0.649099 -0.45574,0.635288 -0.45574,1.892041 v 1.104854 q 0,1.270564 0.45574,1.905852 0.46958,0.635288 1.38106,0.635288 z"
         style="font-weight:bold;font-size:11.796px;line-height:1.25;font-family:'Sans Mateo 2';-inkscape-font-specification:'Sans Mateo 2, Bold';letter-spacing:-0.644566px;fill:#a3b8de;fill-opacity:1;stroke-width:0.757605"
         id="path68650" />
      <path
         d="m 212.30316,47.621086 q -1.97491,0 -1.97491,-2.030152 V 40.08051 q 0,-1.767752 1.72633,-1.767752 h 2.00252 q 1.43631,0 2.1959,0.593855 0.75957,0.593854 0.75957,1.795374 0,1.781564 -1.40867,2.113019 1.79536,0.40051 1.79536,2.27874 0,1.284386 -0.7872,1.905863 -0.77338,0.621477 -2.27875,0.621477 z m 0.0828,-5.482802 h 1.39487 q 1.21534,0 1.21534,-1.132464 0,-0.552421 -0.30383,-0.828632 -0.30385,-0.27621 -0.9115,-0.27621 h -0.82863 q -0.56624,0 -0.56624,0.566232 z m 0.7872,3.894582 h 0.7872 q 0.63529,0 0.95293,-0.290021 0.33145,-0.303833 0.33145,-0.883877 0,-1.20152 -1.28438,-1.20152 h -1.5744 v 1.602031 q 0,0.773387 0.7872,0.773387 z"
         style="font-weight:bold;font-size:11.796px;line-height:1.25;font-family:'Sans Mateo 2';-inkscape-font-specification:'Sans Mateo 2, Bold';letter-spacing:-0.644566px;fill:#a3b8de;fill-opacity:1;stroke-width:0.757605"
         id="path68652" />
      <path
         d="m 220.12057,47.621086 q -1.97491,0 -1.97491,-2.030152 V 40.08051 q 0,-1.767752 1.72633,-1.767752 h 4.26746 q 0,1.698709 -1.67109,1.698709 h -1.67106 q -0.56623,0 -0.56623,0.566232 v 1.477731 h 2.44447 q 0.82863,0 0.82863,0.842442 0,0.856254 -0.82863,0.856254 h -2.44447 v 1.381053 q 0,0.78721 0.80101,0.78721 h 1.46392 q 1.69869,0 1.69869,1.698697 z"
         style="font-weight:bold;font-size:11.796px;line-height:1.25;font-family:'Sans Mateo 2';-inkscape-font-specification:'Sans Mateo 2, Bold';letter-spacing:-0.644566px;fill:#a3b8de;fill-opacity:1;stroke-width:0.757605"
         id="path68654" />
      <path
         d="m 228.22802,47.81443 q -2.01634,0 -3.05214,-1.063409 -1.02197,-1.063421 -1.02197,-3.273105 v -1.035799 q 0,-2.140629 1.02197,-3.231672 1.0358,-1.091031 3.05214,-1.091031 2.01634,0 3.03832,1.091031 1.02197,1.091043 1.02197,3.231672 v 1.035799 q 0,2.209684 -1.02197,3.273105 -1.02198,1.063409 -3.03832,1.063409 z m 0,-1.753941 q 0.89768,0 1.35342,-0.635288 0.46958,-0.635288 0.46958,-1.905852 v -1.104854 q 0,-1.256753 -0.46958,-1.892041 -0.45574,-0.649099 -1.35342,-0.649099 -0.9115,0 -1.38105,0.649099 -0.45577,0.635288 -0.45577,1.892041 v 1.104854 q 0,1.270564 0.45577,1.905852 0.46955,0.635288 1.38105,0.635288 z"
         style="font-weight:bold;font-size:11.796px;line-height:1.25;font-family:'Sans Mateo 2';-inkscape-font-specification:'Sans Mateo 2, Bold';letter-spacing:-0.644566px;fill:#a3b8de;fill-opacity:1;stroke-width:0.757605"
         id="path68656" />
    </g>
    <g
       id="g1820"
       transform="matrix(1.0449197,0,0,1.0449197,1.3568686,30.403775)">
      <path
         id="path60830-6"
         style="clip-rule:evenodd;display:inline;fill:#0d2538;fill-opacity:1;fill-rule:nonzero;stroke-width:0.127941;stroke-linejoin:round;stroke-miterlimit:2"
         d="m 118.32068,33.47687 c -1.27392,0.301028 -0.90947,1.849737 -1.09295,2.810842 -0.13214,1.695714 -0.22989,3.394211 -0.27245,5.09465 -0.60215,-2.096812 -0.89628,-4.340443 -1.90729,-6.282415 -0.8841,-0.874576 -2.29031,0.512416 -1.59731,1.472539 0.55727,1.94721 0.95926,3.975641 1.47509,5.957463 -1.32114,-1.816434 -2.33372,-3.952582 -4.0723,-5.405828 -0.99319,-0.424764 -1.86365,1.062321 -1.02221,1.741949 1.14209,1.700392 2.20797,3.450526 3.36519,5.140862 -1.60568,-1.103808 -3.00539,-2.529365 -4.70983,-3.469305 -1.2079,-0.274882 -1.64508,1.611079 -0.60433,2.098192 1.12201,1.070295 2.33671,2.038019 3.59812,2.93839 -1.21124,-0.307787 -2.40221,-0.94242 -3.65525,-0.940362 -1.15411,0.358956 -0.65881,2.068912 0.38831,2.197163 0.41885,0.323923 1.76042,0.541953 1.65942,0.781826 -0.98632,0.228484 -1.08272,1.753268 -0.0234,1.960704 1.05673,0.228484 2.28217,-0.140318 3.27946,0.06759 0.39141,1.027148 1.6665,0.599881 2.335,0.116931 1.59709,-0.661994 3.55667,-0.4478 4.83211,-1.803992 0.65706,-0.724062 1.62886,-0.990011 2.35954,-1.574738 0.66896,-0.476074 -0.11249,-1.197189 0.20416,-1.614985 0.56524,-0.789964 1.6618,-2.023847 0.83105,-2.970242 -0.83849,-0.269012 -1.05881,-0.229419 -0.48877,-1.150206 0.25383,-0.805657 1.06648,-2.115966 0.0264,-2.664397 -1.10262,-0.291042 -1.43933,1.03372 -1.80905,1.774479 0.34645,-1.450953 0.97673,-2.881351 1.08915,-4.361841 -0.32245,-1.163022 -2.0615,-0.561761 -2.0557,0.484376 -0.56008,1.565617 -1.01464,3.167178 -1.4242,4.778 0.0386,-2.202073 0.44235,-4.420401 0.24703,-6.611834 -0.14126,-0.378342 -0.54981,-0.645858 -0.95629,-0.565807 z" />
      <path
         d="m 110.98923,47.098946 c 1.96933,0.578062 3.91652,0.900628 3.97473,0.900371 0.0631,0.01169 -1.04247,0.09495 -2.34946,0.143826 -1.44791,0.06104 -2.0734,0.05122 -2.3962,0.09471 -0.3217,0.04327 -0.32738,0.133536 -0.40222,0.33288 -0.0641,0.172357 -0.0758,0.268521 0.26857,0.31499 0.32741,0.0442 1.0645,0.04888 2.52167,-0.02339 0.98971,-0.04981 1.34565,-0.02105 1.25079,0.130496 -0.0699,0.111084 -0.0823,0.313212 -0.0211,0.453857 0.10547,0.238212 0.17821,0.214452 1.26616,-0.280331 0.91927,-0.418147 1.36358,-0.551659 2.10591,-0.623712 1.16875,-0.117165 1.93007,-0.438305 2.568,-1.120623 0.34469,-0.353927 0.84445,-0.69815 1.56117,-1.066062 0.92815,-0.4902 0.98849,-0.553857 0.86445,-0.778997 -0.0914,-0.161833 -0.19574,-0.207904 -0.33031,-0.145228 -0.45662,0.213516 -0.28786,-0.131899 0.36038,-1.000979 0.38681,-0.519315 0.74502,-1.091601 0.91609,-1.416833 0.22568,-0.451308 0.22802,-0.553881 0.0531,-0.678132 -0.25482,-0.192703 -0.31836,-0.09705 -0.97126,0.887345 -0.29572,0.443123 -0.75238,1.06494 -1.17195,1.559513 -0.23106,0.279279 -0.47077,0.5612 -0.71988,0.846232 0.50496,-1.132363 0.9677,-2.260586 1.41948,-3.373538 0.67644,-1.656356 1.08301,-2.673986 1.20846,-3.042576 0.15294,-0.449671 0.1036,-0.492071 0.007,-0.563773 -0.0903,-0.06665 -0.15247,-0.0718 -0.35734,0.294667 -0.21679,0.387487 -0.5401,1.083415 -1.20467,2.545875 -0.76971,1.69396 -1.44155,3.093745 -1.61026,3.35359 -0.0737,0.123713 -0.14804,0.247146 -0.22311,0.37121 0.0117,-0.117399 0.0255,-0.235149 0.0391,-0.353086 0.0444,-0.390317 0.22778,-1.5702 0.51772,-2.924545 0.29813,-1.391763 0.63071,-2.606399 0.81162,-3.200433 0.174,-0.589521 0.47063,-1.555678 0.64111,-2.150203 0.2714,-0.911737 0.30283,-1.092653 0.13354,-1.122938 -0.19598,-0.03835 -0.29118,-0.0718 -0.4862,0.373876 -0.16113,0.368029 -0.53155,1.450579 -1.04593,3.247346 -0.57319,2.025297 -0.92724,3.597906 -1.13657,4.508169 -0.2203,0.958486 -0.33339,1.401913 -0.3804,1.396791 -0.0498,-0.01169 -0.10454,0.175631 -0.20323,-0.322169 -0.0468,-0.234891 -0.11108,-0.683884 -0.1506,-1.385191 -0.0409,-0.721513 -0.0575,-1.723965 0.0164,-3.172487 0.15037,-2.95586 0.32242,-4.466776 0.32235,-5.208985 -1.2e-4,-0.742187 -0.0889,-0.738445 -0.27635,-0.706757 -0.15739,0.02643 -0.24638,0.04654 -0.32213,0.797051 -0.0758,0.750348 -0.21655,2.252073 -0.35261,5.230828 -0.069,1.508203 -0.0737,2.550857 -0.0592,3.446223 0.0117,0.838631 0.0372,1.361618 0.0255,1.553877 -0.007,0.09939 -0.19832,-0.158092 -0.52811,-0.953037 -0.36076,-0.869993 -0.71845,-1.96924 -1.19527,-3.921619 -0.32713,-1.254696 -0.5533,-2.194146 -0.74336,-2.88556 -0.18919,-0.687954 -0.33587,-1.142606 -0.44817,-1.42993 -0.22708,-0.580821 -0.31707,-0.537299 -0.55867,-0.425232 -0.18289,0.08466 -0.2377,0.108044 -0.0713,0.713234 0.0776,0.281945 0.22451,0.773875 0.39763,1.448124 0.22194,0.864403 0.35302,1.469335 0.67458,2.917833 0.47306,1.946252 0.74249,2.875552 1.06653,3.881956 0.26031,0.80844 0.40171,1.197938 0.29694,1.095272 -0.11927,-0.118568 -0.64231,-0.660381 -1.28735,-1.473592 -0.63566,-0.801423 -1.21622,-1.643305 -1.59405,-2.207569 -0.75054,-1.120927 -1.29345,-1.96192 -1.72179,-2.57284 -0.42682,-0.608744 -0.73396,-1.00023 -0.95168,-1.244078 -0.43868,-0.491276 -0.52916,-0.424905 -0.70844,-0.295369 -0.1305,0.09425 -0.18031,0.137044 0.18171,0.690363 0.18101,0.276589 0.463,0.683206 0.87474,1.308344 0.41174,0.625115 0.94406,1.475416 1.67913,2.606305 0.26441,0.406898 0.84595,1.307315 1.49258,2.171064 0.62774,0.838444 1.28101,1.555139 1.32972,1.606004 0.10618,0.123714 0.11179,0.175631 -0.0309,0.1471 -0.073,-0.02105 -0.74249,-0.347637 -1.53825,-0.823664 -0.84474,-0.505377 -1.66819,-1.072962 -2.42558,-1.652871 -1.76253,-1.349364 -2.60759,-2.106541 -3.09826,-2.444332 -0.49048,-0.337651 -0.59165,-0.282319 -0.71379,-0.110851 -0.10781,0.151075 -0.1623,0.243568 0.20463,0.632832 0.2561,0.271842 1.25652,1.201797 2.78666,2.368795 0.94812,0.72315 1.76393,1.289401 2.54964,1.782617 0.72249,0.453507 1.31056,0.772472 1.41735,0.834142 0.12885,0.07881 -0.83655,0.116697 -3.42132,-0.622028 -1.76035,-0.503015 -2.59153,-0.848243 -3.06528,-0.985053 -0.47287,-0.136576 -0.56216,-0.08209 -0.63709,0.07437 -0.0823,0.172123 -0.11693,0.296141 0.25771,0.532856 0.31834,0.201122 1.20741,0.631102 2.84695,1.112391 z"
         style="clip-rule:evenodd;display:inline;fill:#d3b060;fill-opacity:1;fill-rule:nonzero;stroke-width:0.127941;stroke-linejoin:round;stroke-miterlimit:2"
         id="path60774-0" />
    </g>
  </g>
</svg>
